<?xml version="1.0" encoding="UTF-8"?>
<svg id="Layer_2" data-name="Layer 2" xmlns="http://www.w3.org/2000/svg" viewBox="0 0 938.88 511.47">
  <defs>
    <style>
      .cls-1 {
        fill: #4d3a47;
        stroke-width: 0px;
      }
    </style>
  </defs>
  <g id="Layer_2-2" data-name="Layer 2">
    <g>
      <path class="cls-1" d="M202.44,83.91c-.97,1.34.51,2.82,3.97,1l1.3-4.1-5.28,3.1Z"/>
      <path class="cls-1" d="M229.03,79.79c3.67-3.14,7.59-7.68,3.72-9.44-3.09,4.6-4.6,3.77-7.77,9.05-3.47,1.8-6.69,1.57-6.54.19-.96,1.31-5.89,1.61-7.04,4.32,2.83.23,5.74-.23,8.62-1.31,1.44-.54,2.87-1.24,4.28-2.08,1.42-.83,2.82-1.78,4.19-2.88,1.61.16.62,1.47.54,2.16Z"/>
      <path class="cls-1" d="M599.32,11.75l-2.43-.41c.66.22,1.49.35,2.43.41Z"/>
      <path class="cls-1" d="M824.77,59.63c-1.6-.73-2.4-.77-2.61-.54,1.54.55,2.83.97,2.61.54Z"/>
      <path class="cls-1" d="M856.01,83.14c-.61-.56-1.16-1.01-1.73-1.5.53.75,1.14,1.39,1.73,1.5Z"/>
      <path class="cls-1" d="M599.32,11.75l6.23,1.09c.46-1.08-3.19-.83-6.23-1.09Z"/>
      <path class="cls-1" d="M275.59,54.16c-1.2.58-2.15,1.23-2.97,1.93.98-.49,1.94-.94,2.94-1.37,0-.19,0-.35.03-.56Z"/>
      <path class="cls-1" d="M496.68,19.6l-1.88.2c-.51.43-.98.94-1.41,1.5l3.3-1.7Z"/>
      <path class="cls-1" d="M418.77,32.17c1.77-.24,1.84-3.12,2.28-4.46-.77,1.34-1.96,2.14-3.46,2.67.08.53.43,1.11,1.18,1.79Z"/>
      <path class="cls-1" d="M296.15,59.24l-2.01,1.04c.52-.29,1.41-.69,2.01-1.04Z"/>
      <path class="cls-1" d="M553.01,15.75c.15.41.45.77.76.98-.02-.35-.31-.68-.76-.98Z"/>
      <path class="cls-1" d="M544.63,60.89c-.07.2.02.33,0,.5.47-.27.62-.47,0-.5Z"/>
      <path class="cls-1" d="M636.3,80.44l-1.29.03c-.19.52-.38,1.02-.43,1.54l1.71-1.57Z"/>
      <path class="cls-1" d="M901.72,134.16c-.04-.12-.07-.16-.11-.27-1.21-1.27-.63-.48.11.27Z"/>
      <path class="cls-1" d="M427.78,479.33c7.84,1.51-11.82,4.8-.15,6.09-1.18-.96,9.71-5.69.15-6.09Z"/>
      <path class="cls-1" d="M277.68,53.84c1.01-.38,2.05-.76,3.1-1.09-1.45.39-2.4.73-3.1,1.09Z"/>
      <path class="cls-1" d="M427.63,485.42v.02s1.21.11,1.21.11c-.5-.05-.78-.08-1.21-.13Z"/>
      <path class="cls-1" d="M866.69,270.75c.59.07,1.3-.19,2.02-.49-.26-.14-.77-.08-2.02.49Z"/>
      <path class="cls-1" d="M919.64,167.92l-.12,2.81c.15-1.12.16-2.02.12-2.81Z"/>
      <path class="cls-1" d="M824.5,319.21c-1.39.95-2.07,1.04-3.52,2.84.25-.03.47-.1.74-.2.36-.84,1.06-1.7,2.78-2.64Z"/>
      <path class="cls-1" d="M771.64,360.61c.42-.02.9-.16,1.34-.24.52-.42,1.13-.9,1.67-1.33l-3.02,1.57Z"/>
      <path class="cls-1" d="M335.87,76.61c1.63.52,2.7,1.22,3.57,1.95-1.39-1.79,8.5-4.22-3.57-1.95Z"/>
      <path class="cls-1" d="M276.14,55.64c.15-.8.59-1.32,1.54-1.8-.74.28-1.43.58-2.11.88-.05.46.03.85.57.92Z"/>
      <path class="cls-1" d="M837.12,337.66c-2.83,2.4-5.78,4.65-8.7,6.94,2.54-1.81,5.76-4.27,8.7-6.94Z"/>
      <path class="cls-1" d="M7.42,380.97l-1.02-2.52c.21,1.02.53,1.93,1.02,2.52Z"/>
      <path class="cls-1" d="M802.89,365.47c-2.16.42-4.2,1.18-6.18,2.14-.24.45-.56.9-.61,1.34,2.27-1.15,4.57-2.26,6.79-3.48Z"/>
      <path class="cls-1" d="M339.46,78.58s-.03-.02-.03-.02c0,0,0,.02.03.02Z"/>
      <path class="cls-1" d="M410.25,62.56c-5.23.43-6.36,1.48-6.44,2.67-.08,1.19.89,2.55-.1,3.72-12.27,2.36-6.02-2.09-10.45-3.52-3.83.87-7.12,2.44-10.18,3.75-3.05,1.34-5.87,2.48-8.75,2.79-.51-.54-1.66-.61-.44-1.55-3.89,2.04-9.93,2.86-16.11,3.92-3.09.55-6.22,1.12-9.13,1.88-1.45.38-2.85.81-4.17,1.3-1.31.51-2.53,1.09-3.63,1.75-.76-.2-1.16-.45-1.38-.69,1.84,1.56,2.38,3.38,2.29,4.75-4.58.86-8.09,3.77-10.24,1.69,2.82-.42,2.88-1.42,4.07-2.39l-4.62,1.86c-4.95-2.66,6.35-2.32,5.92-4.85-2.3.68-4.68,1.49-7.07,2.33-2.38.86-4.77,1.73-7.09,2.58-4.65,1.65-9.07,2.93-12.73,3.24-1.09-1.49,3.03-2.7,6.17-3.51,3.14-.84,5.29-1.45.2-2.01l11.37-.85c-9.49-3.64,6.84-.93-2.02-5.07-7.45.94-11.5,2.1-15.5,3.38-4.01,1.3-8.01,2.54-15.41,3.65-2.86,2.59,1.68,2.48-1.17,5.07-4.96,2.01-8.56,2.72-11.42,2.79-2.85.1-4.94-.43-6.86-.98-1.92-.55-3.67-1.1-5.82-1.01-2.14.11-4.71.8-8.18,2.94-1.66,1.62-2.59,3.57-4.5,5.2-.96.82-2.16,1.55-3.83,2.13-1.67.57-3.8.99-6.61,1.24l2.58-4.75c-7.01,1.85-8.61,3.76-10.36,5.43-1.75,1.67-3.65,3.03-11.24,4.11,1.06-1.13,3.67-2.29,5.75-3.14,2.09-.81,3.63-1.32,2.51-1.23-10.29-.04-6,4.15-13.18,6.4l-2.54-2.76c-3.65,1.25-7.3,2.84-11.02,4.42-3.71,1.61-7.49,3.24-11.25,5.06-3.77,1.78-7.59,3.58-11.45,5.34-3.83,1.84-7.69,3.65-11.6,5.34.5-1.28,2.84-3.34-1.27-2.85-1.22.59-2.45,1.17-3.69,1.74-1.24.58-2.49,1.17-3.75,1.76-2.53,1.16-5.1,2.28-7.71,3.37-2.6,1.14-5.23,2.26-7.89,3.34l-4,1.61-3.99,1.66c-10.7,4.26-21.38,8.7-31.18,13.11l-5.53,6.66c-1.64.93-3.68.76-2.24-.85-7.64,3.57.62,1.81-2.13,4.94-3.85,2.71-6.18,1.96-4.13-.4-.69.62-1.42,1.28-2.18,1.96-.75.71-1.53,1.44-2.33,2.21-1.62,1.51-3.35,3.1-5.17,4.73-1.81,1.64-3.63,3.46-5.54,5.21-.95.88-1.92,1.76-2.89,2.65-.97.89-1.9,1.85-2.86,2.76-7.82,7.16-15.19,14.85-21.69,19.55l1.45-2.82c-2.37,1.99-3.69,4.05-4.66,5.91-.96,1.87-1.51,3.62-2.06,5.3-.55,1.68-.99,3.39-1.92,5.07-.91,1.7-2.29,3.39-4.48,5.28.24-.7.56-1.36.83-2.04-4.02,5.21-7.78,10.85-11.02,16.76-1.72,2.91-3.22,5.9-4.7,8.88-.72,1.5-1.43,2.99-2.14,4.48-.68,1.5-1.35,2.99-2.01,4.46-2.62,5.93-4.99,11.75-7.31,17.2-2.28,5.47-4.54,10.58-6.9,15.16,1.52,2.39-.52,8.53-2.02,14.59-.72,3.03-1.38,6.02-1.41,8.43-.08,2.4.4,4.19,1.81,4.81-.61,1.79-1.14,3.3-1.63,4.6-.45,1.31-.85,2.42-1.23,3.4-.38.99-.72,1.85-1.04,2.68-.3.83-.58,1.63-.87,2.48-.55,1.7-1.14,3.6-1.64,6.43-.55,2.83-1.09,6.58-1.48,12.02-.06,2.91.91,5.04,2.12,7.29.59,1.13,1.2,2.28,1.75,3.59.58,1.31,1.09,2.76,1.42,4.49l-3.05.51c.67,1.56,1.47,3.09,2.22,4.61.75,1.52,1.49,3.03,2.33,4.51-.9,1.88-1.84,3.81-2.68,5.76.76,2.16,1.46,4.32,2.28,6.44-.49-2.67.08-5.88,1.02-5.66,1.7,4.95,2.95,11.14,3.69,16.32.42,2.57.71,4.87.77,6.61.11,1.72.05,2.85-.3,3.07,4.05,7.53,8.8,14.65,14.15,21.18-1.4.26-3.96-3.15-6.4-5.67,4.88,5.05,4.52,5.94,4.11,6.81-.22.43-.46.84-.05,1.69.42.83,1.44,2.21,3.88,4.28-.43-1.73,2.02-.37,2.68-.53,1.06,3,3.8,7.26,7.42,11.46.91,1.05,1.86,2.1,2.83,3.15.98,1.03,2.03,2.02,3.06,3.01,2.04,2,4.23,3.75,6.25,5.34l-2.89.23c6.72,6.57,14.73,12.44,23.32,17.63,8.6,5.21,17.8,9.71,27.08,13.92-1.57-.96-2.54-1.88-3.03-2.67-.49-.78-.5-1.41-.15-1.85.7-.88,2.81-.93,5.56.08l.83,3.94c4.28-.3-5.11-3.63,2.98-2.72,6.7,3.19,3.25,5.36-1.2,4.67,2.99.82,5.95,1.68,8.94,2.38.16,1.1-2.04.81-3.02,1.76,2.14-.28,5.54,1.95,9.3,3.9,1.87,1.01,3.82,1.93,5.7,2.51,1.88.58,3.67.82,5.23.35l.21,1.08c9.68,2.92,16.84,4.4,23.54,5.62,6.71,1.18,12.96,2.12,20.93,3.41.78-2.73,6.89-1.06,11.93-2.65,5.74,1.28,11.78,2.84,18.16,4.16,6.37,1.33,13.12,2.47,20.13,2.84,9.93-.69,3.05-2.17,7.58-3.52.27,1.3,3.9,2.15,6.54,2.83,2.64.66,4.31,1.13.62,1.86,8.42.23,13.79.42,19.73.36,2.97-.06,6.08-.17,9.78-.35,3.7-.18,7.98-.4,13.31-.86-2.28-1.09-4.86-1.59-3.5-2.44,3.85-.36,8.73,1.22,8.16,2.44l-1.02.25c2.99-.43,6.08-.62,9.25-.64,3.17-.07,6.42.03,9.7.24,3.29.2,6.61.56,9.94.89,3.33.31,6.67.68,9.97,1.03,6.6.76,13.07,1.27,19.06,1.29,3,0,5.88-.08,8.59-.45,2.71-.36,5.26-.92,7.6-1.72l-1.05.32,9.76-1.95,9.72-2.11c9.07-.24-5.28,2.33,1.53,3.41,2.62-.73,5.1-1.31,7.48-1.77,2.38-.49,4.65-.88,6.84-1.18,4.38-.6,8.46-.85,12.43-1.07,3.96-.28,7.81-.49,11.74-.94,1.96-.22,3.95-.51,5.97-.88,2.02-.4,4.08-.91,6.21-1.55,3.6,1.43,8.4,1.74,13.85,1.38,5.44-.43,11.54-1.49,17.75-2.67,6.2-1.29,12.53-2.67,18.49-3.65,5.94-1.07,11.52-1.71,16.27-1.37l-1.38-1.55c4.32-2.56,5.82-.13,9.33-.41-.76-1.25-5.35-.53-2.66-2.07,19.45-4.94,39.74-9.04,60.18-13.43,20.43-4.39,41.04-9.12,60.86-15.26,3.63-1.12,5.73-2.46,7.17-3.81,1.44-1.36,2.2-2.74,3.12-4.05.92-1.31,1.99-2.56,4.03-3.63,2.04-1.08,5.03-2.07,9.85-2.8l-3.84,5.04c13.56-7.29,27.9-13.31,42.07-19.67,14.15-6.36,28.15-13.04,40.47-21.66-1.21,1.51-.79,2.41-3.37,3.77,6.77-.76,20.57-11.2,19.65-12.95,4.12-2.17,1.82.98,4.8.38,3.09-1.02,6.17-3.67,8.91-6.11,2.74-2.46,5.21-4.61,7.28-4.48.69.03-1.1,1.6-2,2.37,1.45-1.6,5.62-4.02,8.73-6.26,3.13-2.19,5.29-3.99,2.87-4.07,5.1-2.48,9.34-5.82,13.39-8.92,1.01-.77,2.02-1.53,3-2.28.98-.75,1.95-1.5,2.93-2.19,1.95-1.4,3.92-2.64,5.98-3.62,1.48-2.93,5.51-5.55,9.07-8,1.78-1.22,3.44-2.4,4.57-3.56,1.12-1.19,1.71-2.35,1.39-3.5,1.08,2.03,5.5-.35,10.19-4,4.59-3.77,9.43-8.78,11.39-11.94-.88,2.62,5.56-3.06,4.73.22,3.01-2.76,5.83-5.48,7.44-7.73,1.63-2.23,2.19-3.84.88-4.21,3.63-1.6,6.71-3.83,9.27-6.46,2.57-2.62,4.75-5.49,6.81-8.17,2.05-2.7,3.89-5.29,5.96-7.24,2.05-1.97,4.33-3.29,7.01-3.7,1.81-2.45,3.6-4.89,5.37-7.3.88-1.2,1.79-2.38,2.65-3.59.85-1.21,1.7-2.42,2.55-3.62,1.7-2.39,3.38-4.76,5.05-7.11,1.62-2.38,3.23-4.75,4.82-7.1,6.43-9.32,12.45-18.78,17.88-28.38,1.69,1.51-1.49,6.81-4.77,11.71-1.62,2.47-3.28,4.82-4.21,6.73-.97,1.88-1.25,3.29-.16,3.82,5.58-8.96,9.07-16.7,12.46-24.36,3.36-7.7,6.72-15.25,11.24-24.9,1.31-2.45,1.48-1.56,1.31.24-.08.9-.25,2.02-.4,3.04-.19,1-.35,1.91-.37,2.42,3.56-10.3,6.97-20.41,8.64-30.86.82-5.21,1.32-10.45,1.12-15.64-.05-1.3-.12-2.59-.2-3.88-.06-1.28-.33-2.56-.5-3.83-.2-1.27-.42-2.53-.66-3.77-.26-1.24-.64-2.47-.98-3.68.21,0,.52.5.86,1.27.33.77.74,1.79.98,2.8-.1-1-.29-2.07-.43-3.11-.15-1.05-.29-2.07-.48-2.93-.41-1.73-1.02-2.83-1.96-2.39.47,1.21.94,2.42,1.31,3.67-.47,1.7-1.26,1.61-2.18.59-.88-1.03-2.07-2.95-3.26-5.01-.57-1.04-1.22-2.1-1.86-3.1-.63-1.01-1.22-1.97-1.77-2.8-1.18-1.63-2.11-2.77-2.53-2.78,3.78,1.95,2.7-2.56,1.5-6.68-.56-2.06-1.18-3.98-.88-5.07.29-1.08,1.41-1.32,4.22.27-.73-1.08-1.64-2.26-2.53-2.97-.9-.71-1.72-1.01-2.19-.43-1.39-3.45-1.28-4.95,1.9-2.3-3.82-5.85-5.81-7.18-7.47-8.52-.84-.66-1.6-1.32-2.64-2.39-1.04-1.07-2.23-2.65-4.08-5.04.8-.56,2.63,1.13,4.29,1.51-5.27-3.92-10.47-7.44-16.73-15.34.85.03.62-1.37,2.66.87-3-3.17-6.12-5.74-9.21-8.09-1.57-1.15-3.13-2.23-4.69-3.3l-2.33-1.6c-.79-.51-1.58-1.03-2.37-1.54-1.58-1.03-3.16-2.08-4.73-3.18-1.61-1.05-3.23-2.15-4.84-3.33-1.6-1.2-3.27-2.41-4.95-3.73-1.69-1.32-3.35-2.8-5.13-4.31,7.02-.29-4.33-4.86-3.1-8.47-3.05-1.56-6.04-3.19-9.13-4.62.83,1.24,1.67,2.43,2.46,3.7-1.83-1.23-3.76-2.2-5.65-3.12-.95-.45-1.89-.89-2.83-1.31-.95-.4-1.89-.79-2.82-1.18-1.86-.77-3.64-1.59-5.36-2.45-1.73-.85-3.36-1.81-4.87-2.98l6.48,1.79-7.42-3.65-7.5-3.44c2.55,1.85,5.12,3.64,7.63,5.52-4.37-1.22-4.7-.02-5.17.64-.48.68-1.06.83-5.98-2.2,2.27.67-7.74-3.81-11.03-7.59,0,0,.03.01.03,0-2.2-.36-4.46-.6-6.84-1.23-2.37-.64-4.91-1.56-7.73-3.15-1.13-1.72,2.75-3.36,2.02-4.49-2.55.64-7.42-.93-12.44-2.46-2.52-.73-5.08-1.47-7.39-1.93-2.32-.42-4.39-.57-5.91-.18,1.94-.21,2.62-2.04,2.18-2.6l-4.16,1.34c-3.61-1.93-4.08-2.46-3.01-3.78-5.78-1.95-5.17-.53-4.79.61.38,1.15.56,1.98-6.09-.89,1.14.1.72-.41,3.09-.16-1.71-.6-3.41-1.15-5.12-1.65-1.71-.47-3.43-.89-5.13-1.28-3.41-.81-6.82-1.36-10.18-1.97-3.37-.57-6.7-1.09-9.98-1.73-3.29-.58-6.53-1.34-9.72-2.23-1.58-2.19,1.31-1.93,4.12-1.52,2.81.4,5.54.86,3.65-1.13-9.5-1.56-19.49-2.16-29.34-2.65-9.85-.49-19.57-.92-28.69-2.29l3.38.76c-1.55,2.5-4.87,1.52-9.03.1-4.16-1.38-9.16-3.18-13.9-2.26,2.3-.22,3.21-2.71,2.55-2.16-1.57-.23-3.15-.41-4.76-.55-1.61-.1-3.23-.16-4.89-.19-3.32-.06-6.77.02-10.42.16-3.65.14-7.5.35-11.63.57-2.06.11-4.2.22-6.42.33-2.22.18-4.52.37-6.91.57l2.4-1.34c-7.41-1.28-19.59-.86-27.63-1.55-2.37,1.34-6.96,1.33-4.14,3.2-6.21-1.75-12.29-2.27-18.23-2.16-5.94.12-11.74.78-17.42,1.86-5.68.99-11.26,2.02-16.81,2.49-2.78.23-5.55.33-8.33.21-2.78-.04-5.56-.26-8.37-.78,2.61-.29,6.12-1.84,4.04-1.63l-18.5,3.2c1.73,2.14,2.6,1.13,6.69,2.52-2.21,1.61-7.31,3.21-11.89,3.69,8.15-2.38-.5-3.71-4.27-4.55.69.62-.45,1.57-.05,2.24-10.18-2.73-1.03,4.84-14.54,3.92l.53-1.3c-4.85,1.3-9.14,3.52-14.5,3.91-2.61-2.33,5.05-1.96,5.06-4.18-1.86.3-3.67.89-5.44,1.58-1.76.73-3.49,1.59-5.2,2.35-3.43,1.52-6.81,2.67-10.39,1.93,3.03-1.28,7.56-2.07,10.6-3.34-7.84-1.84-8.57-.9-14.11-.45l.55-.02c-4.29.27-8.59.49-12.88.81,1.12.05,2.25.17,3.37.26-2.02,2.08-4.17,3.53-6.47,4.52-2.3,1-4.73,1.58-7.28,2.11-5.1,1.06-10.68,1.89-16.4,5.41,11.17-6.71,1.47-2.86,1.75-6.01-.84-.03-1.79-.07-2.72-.11-.92-.01-1.83-.03-2.59-.08-1.53-.1-2.49-.34-1.9-.91-5.33,3.76-10.27.42-17.73,5.84-.6-.86-6.31,1.38-5.57-1.31-7.43,2.69,2.21,1.17,1.86,2.56-5.47,3.05-12.54,3.94-20.28,5.06-1.93.29-3.9.59-5.89.96-1,.18-2,.38-3,.61-1,.24-2,.51-3,.8-4,1.16-8,2.74-11.85,5.04-6.93,2.99-10.81,5.44-14.51,7.98-3.71,2.5-7.3,4.92-13.63,7.79-4.93-.08,2.56-4.53,2.56-4.53-3.81.46-7.07,1.15-10.15,2.2-3.07,1.07-5.99,2.43-9.17,4.11,1.09-1.27-.54-1.48-2.95-1.81-5.33,2.09-2.46,4.59-10.05,5.66.86-1.44,1.85-3.62,4.11-5.54-6.12,2.97-11.72,7.05-17.97,10.24-2.32-.96,3.07-3.86,5-5.75-3.56,1.7-8.2,3.81-12.12,5.9-3.93,2.06-7.06,4.28-7.72,5.95l5.02-.91c-2.61,1.15-2.19-1.63-.39-2.85,5.57-4.29,9.42-2.44,10.11-1.66l-4.44,2.28c6.76,3.66,18.32-7.77,27.95-10.57l-2.57,5.27,8.55-6.56c2.41.32,4.54,2.05.1,4.22,3.7-.18,5.07-1.03,6.34-1.83,1.27-.79,2.42-1.54,5.7-1.35.75.14.52.42-.02.76l6.25-3.28c-1.03,1.24,2,2.45-2.25,3.16,12.6-1.45,18.23-9.11,23.68-7.33l-.93.54c16.22-6.17.72-3.39,12.24-10.46,3.5,1.61,6.97,3.18,10.44,4.83l.84-3.37c1.76-.35,5.24-1.02,4.92.32,5.89-3.71-1.44-.99,1.78-3.88,4.52.25,10.17-1.57,15.09-2.93,2.45-.71,4.75-1.17,6.61-1.26,1.86-.08,3.29.26,4.04,1.33,2.47-2.96-8.43.13.14-3.53,3.75,4.5,10.14-3.29,18.33-2.74-1.77,3.19-9.3,3.48-1.14,4.05,1.8-2.81,5.61-3.3,9.72-3.41,4.12-.11,8.54.18,11.69-.9-.2-1.81,3.25-2.9,8.08-3.96,4.84-1,11.1-1.78,16.46-3.34-.24.66,4.99.27,11.57-.35,3.28-.36,6.94-.51,10.4-.74,3.46-.2,6.75-.36,9.34-.39l-.22.65c.74-1.96,3.76-3.13,7.56-4.04,1.9-.45,3.98-.86,6.07-1.22,2.1-.32,4.19-.64,6.1-1.03-.05,2.21-1.34,3.22-5.38,4.63l7.22-.77c1.57-1.35,3.76-2.2,8.41-3.11l-1.53,2.92c4.79-.58,9.55-1.89,14.69-2.99,5.15-.99,10.69-1.63,16.96-1.16.55-2.6-10.45-6.43,2.68-9.05.58,1.35,1.22,3.68-2.2,4.48,1.12-.26,3.96-1.42,6.28-.99l-5.12,2.69c5.73.63,2.84-2.15,7.4-2.24.02,1.98,3.44,1.18,2.87,2.79-1.14.27-4-.54-5.68.35,2.56,0,5.4.19,7.86.54,2.46.35,4.55,1.02,5.6,1.72-.49-1.11-.12-2.66,3.61-3.03,9.67-.44,3.4,2.27,9.06,3.11,2.3-1.44,8.48-.22,8.59-3.17,2.83-.07,3.38,1.29,4.48,2.05,1.24-.39,3.32-.57,5.66-.69,2.33-.13,4.92-.21,7.18-.35,4.51-.29,7.7-.81,4.89-2.41l-1.29-.22c.24-.06.52-.06.82-.12h-.04s.04,0,.04,0c4.12-.7,8.32-.93,12.55-.89,1.06,0,2.12.03,3.18.07l1.59.07,1.59.15c2.12.21,4.25.46,6.37.72,8.5,1.05,16.93,2.3,25.12,2.07l-.1.98c9.79-.46,21.61,1.12,28.75-.2,2.87.31,6.55,2.57,5.18,3.59,7.44.18,8.45-.85,18.82,2.33-7.62.61,2.32,1.84-7.73.15,9.41,2.19,11.26,4.09,21.88,3.19-3.88,1.87,6.52,4.39,11.11,4.59-2.07-1.02-4.14-2.07-6.24-3.07,5.1.61,9.46,1.7,13.86,2.9l-3.1,2.73c9.09,3.99,17.93,4.4,26.21,5.27,4.15.38,8.1.98,11.81,2.07,3.68,1.16,7.11,2.83,10.05,5.65,2.8-.27.45-1.51-1.98-2.82-2.42-1.3-4.95-2.6-2.32-3.2,2.12.77,4.15,1.89,6.05,3.07,1.91,1.18,3.68,2.47,5.24,3.72,1.56,1.25,2.96,2.38,4.11,3.3,1.15.92,2.06,1.61,2.7,1.87,5.33,3.03,8.34,3.07,11.55,2.99,1.61-.05,3.2-.01,5.13.37,1.92.4,4.16,1.17,6.9,2.86-.97-1.75-1.05-5.38,8.19-2.09,3.96,2.26,5.86,4.64,6.04,6.26.19,1.61-1.24,2.35-3.95,1.47-1.95-.88-2.7-1.69-2.43-2.01-2.76-.95-6.37-2.16-3.79.56l1.56-.54c3.45,3,14.15,8.8,10.69,9.11,6.29,2.39,3.48-.29-.59-3.24,4.55,3.53,8.35,5.78,12.16,8.12.96.58,1.91,1.16,2.89,1.75.96.62,1.93,1.26,2.93,1.95s2.02,1.4,3.07,2.18c1.04.8,2.1,1.69,3.2,2.64-1.13-1.6-1.74-3.74-.23-2.66,1.65,1.39,3,2.48,4.12,3.32,1.11.86,1.97,1.5,2.7,1.95,1.44.9,2.27,1.1,2.99,1.14.73.04,1.36-.08,2.4.23,1.03.32,2.48,1.07,4.85,2.82,2.03,2.79.83,3.27.45,3.8-.39.54-.05,1.17,4.88,4.42,2.25,2.85,1.96,3.7.83,3.67-1.14-.03-3.16-.91-4.55-1.44,4.69,2.61,8.06,6.29,10.58,9.8,2.49,3.56,4.23,6.95,5.95,9.27-1.38-1.14-2.86-2.21-4.28-3.31,1.28.98,2.39,1.94,3.34,2.94.95,1,1.81,1.99,2.67,2.99l-.2-3.85c1.79,2.64,3.41,4.73,2.61,5.3,1.62.76,2.01-.33,2.69-1.17.67-.82,1.72-1.45,4.54.55.85,2.06,3,4.52,4.68,6.9.82,1.2,1.56,2.35,1.94,3.39.36,1.05.4,1.98-.1,2.69-1.41-2.99-2.41-4.23-2.95-4.66-.57-.41-.81.04-1.05.57-.25.53-.5,1.13-1.1,1.05-.6-.08-1.48-.86-3.19-3.01,1.55,1.49,2.96,3.66,4.21,6.47-.08.58-.75-.04-1.36-.63,1.94,5.87,3.16,6.63,4.99,7.34.88.36,1.8.71,2.88,1.7,1.1.97,2.21,2.63,3.38,5.57-1.1-.43-1.63.56-1.79,1.84-.18,1.29.13,2.84.54,3.73-.7-2.31-.27-3.1.81-2.84.53.13,1.2.54,1.91,1.17.67.64,1.38,1.51,2.03,2.55.39,4.09,1.02,6.14,1.68,7.77.33.81.73,1.5.99,2.27.25.77.44,1.6.5,2.67.07-1.64.18-3.3.07-4.95.51.34.92.86,1.27,1.54.32.68.53,1.53.74,2.52.21.98.39,2.11.59,3.35.13,1.25.21,2.62.37,4.1-1.38.49-1-5.31-1.59-3.2.79,1.58,1,3.34.9,5.16-.23,1.83-.81,3.73-1.39,5.66-.7,1.93-1.51,3.9-2.03,5.94-.71,2.04-1.09,4.17-1.12,6.49-2.27,3.73-3.34-.44-5.07,2.79-.34,5.04-1.86,7.44-3.52,9.74-.81,1.16-1.62,2.33-2.49,3.82-.86,1.5-1.55,3.38-2.37,5.95,3.52-1.67,3.3-2.52,1.88,5.41,2.27-5.59,4.31-11.21,5.83-16.86-.16,1.94-.29,3.92-.5,5.9l-.8,5.98c2.35-4.98,3.24-11.1,4.56-14,.09,2.9-.13,4.17.12,4.5.24.33.85-.28,2.27-1.17-1.54,1.45-2.52,3.06-3.22,4.81-.73,1.73-1.29,3.57-1.78,5.5-1.06,3.8-2.23,7.86-5.47,11.11l-5.01-3.14c-4.32,4.92-6.68,10.12-9.55,15.82-2.85,5.68-6.03,11.87-12.12,18.16l4.29-3.73c.2,1.63-1.42,3.79-3.42,6.16-1,1.19-2.1,2.42-3.13,3.68-1.02,1.26-2.03,2.48-2.75,3.72-1.18-1.66-4,.56-6.48,1.59.63.35-1.38,2.8-3.45,5.51-2.07,2.72-4.06,5.82-3.13,7.73l-3.55,2.02-3.62,1.93c-2.61,2.36-4.34,4.5-5.64,6.54-1.3,2.04-2.23,3.91-3.11,5.83-1.78,3.8-3.44,7.7-8.67,12.08,1.49-4.36-3.92-1.15,1.57-8.48-3.26,3.1-6.47,5.59-5.58,6.64-1.4.43-3.16,3.12-5.26,5.74-2.08,2.64-4.38,5.36-6.54,6.04-.42.96-.41,1.93-.79,3.08-.39,1.12-1.17,2.41-3.17,3.99-.68.05-.62-.75-.62-.75.62.75-5.24,6.17-.43,4.96-1.84.54-3.67,1.36-5.51,2.34-1.87.96-3.73,2.11-5.6,3.4-1.86,1.28-3.72,2.7-5.58,4.17-1.89,1.43-3.77,2.92-5.64,4.41-1.87,1.48-3.71,2.99-5.56,4.38-1.86,1.37-3.7,2.68-5.5,3.84-1.8,1.17-3.57,2.2-5.28,3.02-1.74.79-3.43,1.38-5.06,1.69-1.95,1.53-4,3.13-6.09,4.77-2.1,1.62-4.3,3.18-6.46,4.76-2.17,1.56-4.3,3.13-6.41,4.55-2.11,1.41-4.14,2.75-6.03,3.97.18-.81-.49-.85,1.06-1.57-2.87,1.24-4.53,2.42-5.6,3.57-1.08,1.14-1.59,2.24-2.15,3.38-1.12,2.26-2.45,4.66-9.09,7.35-3.95.39-2.52-.91-.68-2.15,1.83-1.27,4.05-2.53,1.81-1.9-2.46-2.28-6.04-.02-10.29,3-4.22,3.07-9.25,6.71-14.31,7.26l1.84-1.42c-1.86.36-3.67,1.2-5.55,2.32-1.89,1.09-3.82,2.47-5.85,3.97-2.04,1.49-4.17,3.14-6.51,4.63-2.34,1.5-4.84,2.93-7.56,4.11,0,0,.27-.77-.36-.92-2.91,3.3-7.84,6.67-13.23,10.04-2.71,1.67-5.58,3.23-8.39,4.77-2.81,1.53-5.57,3-8.15,4.28,2.33-3.69,4.28-3.24,1.28-4.77-4.6,2.29,3.01,3.25-6.23,7.83-3.61.03-10.96,1.57-12.87-.65,2.97-1.23,5.96-2.39,8.9-3.68-2.94-.69-5.83.44-8.6,1.95-2.77,1.5-5.43,3.38-7.91,3.98l.06-1.68c-13.63,5.57-12.5,9.38-27.68,14.24l1.94.61c-3.52,3.21-5.44,3.26-7.38,3.19-1.95-.08-3.9-.23-7.62,2.42l-3.69-2.99c-2.59,1.3-7.1,3.73-12.22,6.16-2.56,1.23-5.26,2.5-7.93,3.67-2.68,1.14-5.33,2.2-7.78,3.06,4.89-4.33,16.04-9.09,22.63-12.93-5.42,1.64-18.39,5.73-20.74,8.34,2.11-.99,4.63-2.64,6.96-2.71-5.85,4.88-14.35,8.81-25.4,11.53.04-3.93-7.24-2.64-15.72-.9-4.25.84-8.8,1.76-12.87,2.25-4.07.47-7.67.4-9.98-.63-9.48,3.47-19.32,4.96-29.58,6.21-5.14.56-10.39,1.06-15.79,1.7-5.41.55-10.96,1.2-16.69,2.17,4.5,2.34,2.83,2.63.31,3.07-2.52.45-5.9.93-4.77,3.88-5.35,1.1-7.43,1.27-7.96.93-5.61-.45-11.22-1.07-16.8-1.67-4.07-1.34,4.98-1.91,4.32-3.22-11.83.85-5.23-2.02-13.17-2.77,1.83,2.03-3.78,3.5-10.58,3.3l9.74,1.92c-8.1,2.39-11.8,1.45-15.49.5-3.7-.96-7.38-2.02-15.58.23l5.12-2.31c-2.11.44-5.13.81-8.6,1.2-3.47.34-7.4.66-11.31,1.12-7.83.97-15.63,2.11-19.75,4.75-1.54-.65-3.6-2.24.15-2.83-5.12.05-10.51.37-15.99.88-2.74.26-5.49.57-8.24.87-2.75.27-5.49.54-8.2.8-5.42.53-10.71.99-15.63.99-4.92.03-9.49-.21-13.45-1.08l1.59-1.44c-3.82.31-6.74,2.58-11.48.91.27-.61,1.59-1.44-.17-1.59-1.02.22-3.58.79-6.52,1.17-2.94.33-6.25.46-8.76-.11l4.41-1.45c-4.96-.76-9.36-.98-13.45-.89-4.08.03-7.84.35-11.52.79-7.37.9-14.33,2.09-22.72,1.71.25-2.19-3.47-4.04-8.16-5.63-2.35-.78-4.93-1.54-7.41-2.17-2.47-.67-4.82-1.24-6.7-1.7l.36-.57c-11.21-2.04-20.8-3.01-30.24-4.03-9.43-1.02-18.73-2.12-28.95-4.78-5.36-4.42-15.36-8.74-25.67-14.35-10.33-5.51-20.91-12.48-27.68-19.87,1.81,2.58-2.53,2.35-5.61.33-.76-.94-1.83-1.86-3.03-2.7-.59-.42-1.21-.83-1.82-1.23-.59-.41-1.16-.83-1.69-1.22-2.11-1.59-3.46-2.97-1.72-4.1.36.43.75.83,1.13,1.25.04-.66-.05-1.33-.22-2.01-.16-.7-.42-1.4-.76-2.11-.66-1.44-1.71-2.83-2.78-4.37-1.08-1.52-2.42-2.99-3.59-4.58-1.19-1.57-2.5-3.09-3.45-4.61-1.67.68-3.35,1.35-5.04,1.99-.67-2.56-1.41-5.21-2.46-7.78-.92-2.65-2.14-5.24-3.25-7.95-2.34-5.35-4.95-10.88-6.99-16.43-4.19-11.02-6.48-21.97-3.47-27.65-1.69-4.66-1.99-10.64-3.18-15.49l2.83.29c.46-6.65,1.04-11.62,1.73-16.98.7-5.36,1.36-11.12,2.74-19.33.4,1.24.89,2.48,1.33,3.71.46-2.27.4-4.22.02-6.02-.4-1.81-1.05-3.47-1.71-5.12-1.34-3.31-2.65-6.65-1.48-10.96l4.82-1.32c2.42-7.94,6.21-15.44,9.98-22.76.93-1.83,1.87-3.66,2.8-5.49.9-1.84,1.83-3.66,2.67-5.51.84-1.86,1.76-3.65,2.51-5.55.39-.94.75-1.9,1.09-2.87.35-.97.64-1.97,1.01-2.93.38.55,1.12,1.57,0,3.94.91-1.68,2.64-3.88,4.47-6.35.92-1.22,1.84-2.54,2.81-3.8,1.01-1.24,1.98-2.49,2.88-3.7.89-1.21,1.7-2.39,2.36-3.49.71-1.06,1.29-2.02,1.64-2.88.71-1.71.56-2.96-1-3.36,1.54,1.15,4.16-2.08,7.45-6.26.8-1.06,1.62-2.21,2.43-3.39.86-1.15,1.74-2.32,2.59-3.46.85-1.17,1.69-2.31,2.48-3.39.4-.54.77-1.08,1.15-1.58.39-.49.77-.96,1.13-1.4l.79,2.99c1.67-3.76,2.44-5.92,3.7-8.07.62-1.1,1.44-2.11,2.57-3.35,1.13-1.24,2.59-2.68,4.58-4.53,1.11-.65,1.93-.49,2.02-.05.09.44-.48,1.21-2.02,1.97,1.87-1.03,3.11-1.83,3.98-2.63.87-.8,1.41-1.58,1.99-2.39,1.17-1.6,2.49-3.45,7.3-5.59l-2.27,3.57c3.74-2.27,5.33-3.51,6.36-4.73,1.02-1.24,1.51-2.41,3.09-4.53,1.06-.95,2.52-1.91,4.14-2.81.81-.45,1.67-.88,2.54-1.28.89-.37,1.79-.71,2.67-1.01,3.54-1.2,6.79-1.73,7.95-.92.31-1.93,3.75-5.92,8.75-7.63,1.05.54-.39,1.93-1.12,2.61,3.49-1.27,6.47-2.53,9.03-3.95,2.57-1.4,4.77-2.85,6.91-4.15,4.24-2.64,8.01-4.98,13.3-5.65.55.77,1.35.94,2.23.87-2.73,1.12-5.33,2.18-7.68,3.14-2.33.99-4.42,1.87-6.14,2.6-1.72.72-3.09,1.28-3.97,1.62-.88.36-1.28.5-1.1.36,1.06,2.29,9.9-1.07,4.47,5.18,6.06-4.82,16.44-13.91,25.62-16.09.51.07,1.01.13,1.47.38l-.79.62c2.09-.54,3.79-1.46,5.32-2.53,1.46-.34,2.65-.62,3.81-.92,1.17-.28,2.31-.61,3.66-1.08.89.81,3.54.14,6.54-.92,3-1.07,6.34-2.52,8.61-3.21-1.3-2.53,4.76-4.11-1.54-4.42.79-.05-.75.59-3.7,1.76-.65.32-1.42.65-1.81.97.06-.11.14-.23.22-.34-2.91,1.15-6.72,2.61-11.07,4.24,3.03-2.63,6.34-5.12,11.83-5.46,1.69-2.55,3.66-5.13,4.82-6.46,3.75.81,8.76.66,13.15.61,4.4,0,8.15,0,9.34.89,1.67-.74,3.43-1.46,5.24-2.19,1.81-.72,3.7-1.38,5.6-2.08,3.8-1.37,7.67-2.79,11.37-4.21,7.43-2.74,14.07-5.86,17.9-9.47,3.87-1.67,5.01.31,6.71.74-2.2,1.1-4.98,1.71-6.05,2.76,1.93-.83,4.37-1.65,6.97-2.48,1.3-.41,2.64-.83,3.97-1.25,1.34-.4,2.67-.8,3.95-1.19,5.12-1.61,9.42-3.33,9.99-5.36,10.61-.56-5.03,4.52,8.91.96l-1.66,1.5c3.61,0,6.98-.3,10.18-.81,3.22-.46,6.27-1.12,9.22-1.94,5.9-1.67,11.46-3.73,17.14-5.81,2.84-1.05,5.71-2.04,8.69-2.92,2.97-.89,6.03-1.7,9.24-2.34,3.21-.63,6.58-1.02,10.14-1.2,3.56-.18,7.32-.11,11.34.37-2.22-.2-3.33-.28-3.85-.84,17.98-.66,36.23-3.26,54.56-5.16,18.31-1.9,36.71-3.05,54.44-.82,10.06.81,11.1-1.49,17.24-3.36l2.2,3c3.49-1.21,6.99-2.33,10.49-3.5,3.73-.64,7.21-.48,10.62.08,3.41.55,6.75,1.42,10.2,2.29,3.45.87,7.02,1.67,10.92,1.98,3.89.34,8.1.21,12.86-.83l-2.35-2.12c6.75.61,21.51-.23,20.26,2.07.71-.33,2.34-1.99,4.92-.78l.11,1.59c5.59-.6,11.18-1.11,16.79-1.64,12.79,2.12-2.45,6.06,16.23,7.86,6.99-.07,20.22-2.78,17.72-4.09-2.81-.34-7.1-1.65-7.17-3.24l6.47-.23c1.59-4.53,7.05-8.81-8.5-13.52l-11.28,1.91-3.38-2.53c3.11.17,6.21.41,9.31.62-5.1-2.57-8.61-.96-12.45.05-.8-1.26-2.29-2.22-4.45-2.83-3.73,1.2-7.45,2.47-11.16,3.71-1.2-1.9,5.1-3.29-2.13-4.77-5.21,1.74,4.62,4.37-3.87,5.22-5.16-2.4-3.53-4.04-9.84-2.58-.81-1.25.54-1.94,3.04-2.33-5.61,1.12-14.69-.09-17.65,2.26-2.71-1.4-7.39-1.4-11.3-1.59-3.91-.17-7.06-.51-6.74-2.71-1.78,1-9.84,3.22-14.92,3.36,4.68-2.58-.08-2.72-5.7-2.91-5.62-.15-12.11-.32-10.88-3.15-3.45,2.34-9.67,2.96-16.56,3.29-3.44.17-7.05.35-10.56.62-3.51.27-6.91.69-9.94,1.47.67-.4,1.98-1.21,3.07-1.01-6.88-.15-8.93-1.51-13.39-2.24-.72,3.97-11.36,5.34-16.95,8.11-8.62-3.25,4.83-4.91,2-8.37.59,3.14-14.44,4.08-11.4,6.54-6.58-1.92-5.61-.73-9.16-3.73-.75,4.99-5.93,1.26-11.01,4.73-9.49-1.56-2.81-4.35-12.88-1.93-2.5-.49-1.53-1.42.08-2.2,1.61-.77,3.85-1.41,3.85-1.41ZM174.92,125.86s-.02-.04-.02-.05c1.93-.83,3.58-1.53,4.63-1.98-.96.42-2.29,1.01-4.6,2.03ZM156.01,133.76c2.33-.93,5.2-2.11,8.23-3.38,1.04.62.7,1.84-1.21,2.58.78-1.02-3.89.28-7.02.8ZM202.92,136.12c-2.83,1.46-4.01,1.3-4.62.91,1.38-.56,2.99-1.24,5.07-2.21.05-.13.19-.31.23-.45-.1.61-.25,1.2-.69,1.76Z"/>
      <path class="cls-1" d="M207.02,130.69c.41-.22.61-.42,1.16-.63-.7-.03-1.34,0-1.99.04-.26.41-.54.83-.76,1.22.54-.21,1.09-.43,1.59-.63Z"/>
      <path class="cls-1" d="M596.47,11.27l.43.07c-.35-.11-.68-.23-.89-.41.28.14.28.23.46.34Z"/>
      <polygon class="cls-1" points="1.54 357.24 2.25 357.13 1.44 355.29 1.54 357.24"/>
      <path class="cls-1" d="M484.5,8.05c-.24-.22-.69-.41-1.55-.51.09.17.75.34,1.55.51Z"/>
      <path class="cls-1" d="M436.46,14.7l-6.94.18c3.03.06,5.21-.04,6.94-.18Z"/>
      <path class="cls-1" d="M399.56,20.45c-.36.58-.41.97-.46,1.32.03,0,.05,0,.08,0l.39-1.33Z"/>
      <path class="cls-1" d="M938.11,163.36c.07.56.16,1.11.28,1.6.89,3.76.44,1.18-.28-1.6Z"/>
      <path class="cls-1" d="M810.48,40.94c1.93.3,3.83.61,5.77,1.13-2.81-1.49-5.04-2.55-5.77-1.13Z"/>
      <path class="cls-1" d="M838.06,336.89s-.02-.02-.02-.05c-.32.29-.61.54-.93.83l.94-.78Z"/>
      <path class="cls-1" d="M823.71,45.68c-2.62-1.87-5.07-2.93-7.47-3.61,2.28,1.27,4.91,2.87,7.47,3.61Z"/>
      <path class="cls-1" d="M244.16,65.12l-1.72.53c.09.16.05.34-.04.5.59-.35,1.17-.7,1.76-1.03Z"/>
      <path class="cls-1" d="M242.4,66.15l-1.74,1.03c.86-.33,1.59-.64,1.74-1.03Z"/>
      <path class="cls-1" d="M236.99,69.35l3.67-2.18c-1.36.52-3.06,1.08-3.67,2.18Z"/>
      <path class="cls-1" d="M291.19,49.95l.22-1.14c-.23.29-.31.67-.22,1.14Z"/>
      <path class="cls-1" d="M305.42,45.15c-3.48.86-9.23.64-13.81,2.76l-.19.91c1.78-2.15,11.28-1.01,14-3.67Z"/>
      <path class="cls-1" d="M368.79,40.28l-12.24,2.37c2.38.5,5.51,1.19.11,2.87,15.95-.84-3.74-1.53,12.12-5.24Z"/>
      <path class="cls-1" d="M406.68,33.18c-6.43,1.82.41,1.53.18,2.2,3.93-1.81,4.89-2.26-.18-2.2Z"/>
      <path class="cls-1" d="M682.9,18.82l-.98,2.46c5.11.26.17-.98.98-2.46Z"/>
      <polygon class="cls-1" points="737.91 14.85 733.25 12.22 730.39 14 737.91 14.85"/>
      <path class="cls-1" d="M763.7,40.43l-2.21-.27,4.16.75,4.14.83c-2.03-.43-4.04-.92-6.08-1.3Z"/>
      <path class="cls-1" d="M779.97,351.71l3.09,1.65c2.47-2.48.95-5.75-3.09-1.65Z"/>
      <path class="cls-1" d="M603.09,444.14c-2.59-.81-8.25,0-11.09,2.56,4.35-1.21,9.03-1.45,11.09-2.56Z"/>
      <path class="cls-1" d="M41.02,400.77c.86.92,1.84,1.74,2.76,2.6-1.48-1.76-2.79-3.64-4.15-5.52l1.39,2.92Z"/>
    </g>
  </g>
</svg>