<svg width="128" height="39" viewBox="0 0 128 39" fill="none" xmlns="http://www.w3.org/2000/svg">
<path d="M16.1381 3.58301C16.7507 5.9013 18.7342 7.97044 20.8777 10.1173L21.3322 10.5718C24.7196 13.9566 28.5107 17.8019 28.5107 23.5396C28.5107 27.9598 26.1526 32.0442 22.3246 34.2543C18.4966 36.4644 13.7804 36.4644 9.95236 34.2543C6.12437 32.0442 3.76624 27.9598 3.76624 23.5396C3.76624 17.9175 7.40603 14.1127 10.7384 10.7775L10.9441 10.5718L11.0466 10.4693C13.3212 8.19543 15.4921 6.02775 16.1381 3.58301ZM100.763 22.0911C101.513 26.1374 99.0557 30.0884 95.0952 31.2056C91.3573 32.1159 89.673 29.213 89.3669 28.4506C89.335 28.3714 89.3059 28.2851 89.1756 28.2867C89.0398 28.2883 89.0249 28.4282 89.0235 28.4482L89.0233 28.4506L89.0222 30.4773L89.0211 30.4761V35.8873H84.971V23.5413C84.9714 19.4262 88.1075 15.9893 92.2054 15.613C96.3033 15.2367 100.013 18.0449 100.763 22.0911ZM16.1379 22.14C16.1379 22.14 15.3611 22.9847 14.5475 23.8882L14.4338 24.0146C13.846 24.6687 13.2569 25.3343 12.9439 25.717C12.2741 26.5019 11.8991 27.4959 11.8834 28.5276C11.8834 29.6562 12.3317 30.7385 13.1297 31.5365C13.9276 32.3345 15.01 32.7828 16.1385 32.7828C18.4886 32.7828 20.3936 30.8777 20.3936 28.5276C20.4028 27.4874 20.0219 26.4814 19.3262 25.708C19.0109 25.3565 18.4478 24.7265 17.8815 24.0927L17.7683 23.966C16.9389 23.0374 16.1379 22.14 16.1379 22.14ZM111.124 15.6132C115.181 15.9858 118.295 19.358 118.357 23.4181L118.358 23.5413V30.9407H114.308L114.306 28.4506C114.306 28.4506 114.3 28.2885 114.154 28.2863C114.023 28.2851 113.994 28.3715 113.962 28.4506C113.656 29.2125 111.972 32.1159 108.234 31.2051C104.274 30.0878 101.817 26.1368 102.567 22.0908C103.317 18.0447 107.027 15.2367 111.124 15.6132ZM83.5397 15.8655L83.5386 23.4292C83.5386 27.797 80.6885 31.337 76.3212 31.337C71.9965 31.337 69.2014 27.8674 69.1459 23.5599L69.1451 23.4292L69.1462 15.8726H73.1781V23.4292C73.1781 25.6395 74.1346 27.4276 76.346 27.4276C78.5296 27.4276 79.4809 25.6823 79.5035 23.5089L79.5039 23.4292L79.4973 15.8655H83.5397ZM124.013 11.2564V30.9468H119.991V11.2564H124.013ZM65.8579 15.7011C66.3961 15.8231 66.9163 16.0136 67.4056 16.2678L67.5383 16.3387V20.9203L67.5355 20.9175C67.5278 20.9101 67.5048 20.8883 67.4656 20.8552L67.4331 20.8283C67.1727 20.6162 66.4174 20.0865 65.0384 19.7599C61.6023 18.9475 59.8127 22.0652 59.7773 22.773L59.7768 22.7937V30.934H55.7371V15.8951H59.3409L59.7712 18.5303C59.7712 18.5303 59.7855 18.6672 59.9125 18.6699C60.0659 18.6738 60.0675 18.621 60.1121 18.5303C60.2033 18.3456 62.3905 14.9007 65.8579 15.7011ZM43.4191 11.2485C49.3887 11.2485 53.9165 12.3441 53.9165 21.0786C53.9165 29.7296 49.1205 30.9092 43.0838 30.9092H38.489V11.2485H43.4191ZM110.393 19.5116C108.762 19.5115 107.293 20.4935 106.669 21.9997C106.045 23.506 106.39 25.2397 107.543 26.3924C108.695 27.5452 110.429 27.8899 111.935 27.2657C113.441 26.6416 114.423 25.1717 114.423 23.5413C114.422 21.3159 112.618 19.5121 110.393 19.5116ZM92.9365 19.5115C90.7112 19.5122 88.9074 21.316 88.9068 23.5413C88.9064 25.1717 89.8883 26.6417 91.3945 27.2657C92.9007 27.8898 94.6346 27.545 95.7874 26.3922C96.9403 25.2393 97.2851 23.5055 96.661 21.9993C96.0369 20.4931 94.5669 19.5112 92.9365 19.5115ZM44.2916 14.6568L42.5566 14.6566V27.4978L44.2244 27.5407C47.6451 27.5407 49.8482 27.2296 49.8482 21.0786C49.8482 15.2394 47.9422 14.6676 44.2916 14.6568ZM16.1381 10.701C16.1381 10.701 16.1376 10.7015 16.1366 10.7025L16.1019 10.7371C16.0737 10.7653 16.0299 10.8091 15.9737 10.8653L15.6466 11.1922C15.5454 11.2934 15.4336 11.4051 15.3161 11.5226L14.7397 12.099C14.6342 12.2044 14.5303 12.3083 14.4311 12.4075L14.1947 12.644C14.1799 12.6589 14.1652 12.6736 14.1507 12.688L13.9172 12.9218C13.8946 12.9445 13.8731 12.9659 13.853 12.9861L13.8312 13.0079C13.3579 13.479 12.4043 14.3594 13.5525 15.6001C14.1491 16.2447 15.9125 18.0994 17.7458 20.054L17.9906 20.3151C20.1546 22.6251 22.3479 25.0053 22.7783 25.6423C23.1483 26.1898 23.2018 26.4463 23.7023 26.4281C23.9831 26.4178 24.1911 26.083 24.2828 25.8824C24.7124 24.943 25.441 22.0961 23.327 18.8061C21.8683 16.536 19 13.5398 17.3618 11.9003L17.2225 11.7612C16.5649 11.106 16.1381 10.701 16.1381 10.701ZM10.6604 16.4328C5.46647 21.5711 8.26622 26.3968 9.02483 26.4226C9.10346 26.4252 9.23445 26.4347 9.32414 26.1845C9.75863 24.9724 13.2544 21.4668 14.0746 20.6257C14.1401 20.5733 14.18 20.4954 14.1844 20.4116C14.1888 20.3278 14.1572 20.2462 14.0975 20.1872L10.6604 16.4328Z" fill="#FAFAFA"/>
</svg>
