<svg width="178" height="39" viewBox="0 0 178 39" fill="none" xmlns="http://www.w3.org/2000/svg">
<path d="M4.96582 3.92529L19.3258 15.6477L29.7884 4.33683C29.9336 4.17989 29.8223 3.92529 29.6085 3.92529H4.96582V3.92529Z" fill="#FAFAFA"/>
<path d="M4.96552 35.5691L19.3255 23.8467L29.7881 35.1576C29.9333 35.3145 29.822 35.5691 29.6082 35.5691H4.96552Z" fill="#FAFAFA"/>
<path d="M5.12312 3.98621L24.1933 19.5393C24.325 19.6467 24.325 19.8479 24.1933 19.9553L5.12312 35.5084C4.94779 35.6514 4.68506 35.5266 4.68506 35.3004V4.19422C4.68506 3.96797 4.94779 3.84322 5.12312 3.98621Z" fill="#FAFAFA"/>
<path d="M84.0008 26.3821C84.0008 31.8028 79.619 35.5523 74.153 35.5523H60.9931C60.8515 35.5523 60.7366 35.4375 60.7366 35.2958V4.18243C60.7366 4.04338 60.8494 3.93066 60.9884 3.93066H73.2042C78.5349 3.93066 82.8264 7.54465 82.8264 12.83C82.8264 15.5403 81.6969 17.6636 79.845 19.1543C82.3748 20.5998 84.0008 23.0843 84.0008 26.3821ZM66.9704 9.97138V16.4518C66.9704 16.5971 67.0882 16.7149 67.2335 16.7149H73.2042C75.2595 16.7149 76.7586 15.0463 76.5778 12.886C76.4281 11.0971 74.8597 9.75805 73.0646 9.75805L67.1837 9.75805C67.0659 9.75805 66.9704 9.85356 66.9704 9.97138ZM77.8027 25.681C77.681 23.7435 75.9978 22.2712 74.0564 22.2712L66.9704 22.2712V29.7249H74.153C76.3713 29.7249 77.9482 27.9993 77.8027 25.681ZM106.328 29.8604H94.0635C93.9623 29.8604 93.8723 29.9252 93.8403 30.0213L92.0503 35.3914C92.0182 35.4875 91.9283 35.5523 91.827 35.5523H85.5976C85.4355 35.5523 85.322 35.3922 85.3755 35.2392L96.2784 4.08825C96.3114 3.99386 96.4005 3.93067 96.5005 3.93067H103.891C103.991 3.93067 104.08 3.99373 104.113 4.08796L115.061 35.239C115.115 35.392 115.001 35.5523 114.839 35.5523H108.564C108.463 35.5523 108.373 35.4875 108.341 35.3914L106.551 30.0213C106.519 29.9252 106.429 29.8604 106.328 29.8604ZM104.451 23.7228L100.442 11.7779C100.37 11.564 100.067 11.564 99.9953 11.7779L95.9857 23.7228C95.9345 23.8753 96.0479 24.033 96.2088 24.033H104.228C104.389 24.033 104.502 23.8753 104.451 23.7228ZM142.772 4.18521V35.2978C142.772 35.4383 142.658 35.5523 142.518 35.5523H138.162C138.079 35.5523 138.001 35.5118 137.953 35.4439L124.477 16.218V35.2978C124.477 35.4383 124.363 35.5523 124.223 35.5523H118.498C118.357 35.5523 118.243 35.4383 118.243 35.2978V4.18521C118.243 4.04463 118.357 3.93066 118.498 3.93066H122.854C122.937 3.93066 123.015 3.97104 123.062 4.03888L136.539 23.2198V4.18521C136.539 4.04463 136.652 3.93066 136.793 3.93066H142.518C142.658 3.93066 142.772 4.04463 142.772 4.18521ZM165.553 35.4233L159.714 25.6335C159.611 25.4616 159.362 25.4615 159.26 25.6335L153.42 35.4233C153.372 35.5033 153.286 35.5523 153.193 35.5523H146.762C146.556 35.5523 146.429 35.3287 146.534 35.1524L155.882 19.4702C155.932 19.3868 155.932 19.2829 155.883 19.1995L147.031 4.33039C146.926 4.15411 147.053 3.93066 147.258 3.93066H153.69C153.783 3.93066 153.869 3.97975 153.917 4.05985L159.26 13.0354C159.362 13.2077 159.612 13.2077 159.714 13.0354L165.057 4.05986C165.104 3.97975 165.191 3.93066 165.284 3.93066H171.714C171.92 3.93066 172.047 4.15441 171.942 4.33068L163.091 19.1541C163.041 19.2377 163.041 19.3418 163.091 19.4253L172.484 35.1522C172.589 35.3285 172.462 35.5523 172.257 35.5523H165.78C165.687 35.5523 165.601 35.5033 165.553 35.4233ZM44.4727 29.5731C43.6588 29.4675 43.0279 28.7794 43.0279 27.9368V22.7412C43.0279 22.6064 43.1372 22.4971 43.272 22.4971H54.7549C54.8897 22.4971 54.999 22.3878 54.999 22.253V16.8687C54.999 16.7339 54.8897 16.6246 54.7549 16.6246H43.272C43.1372 16.6246 43.0279 16.5153 43.0279 16.3805V10.1378C43.0279 10.003 43.1372 9.89369 43.272 9.89369H55.8844C56.0192 9.89369 56.1285 9.78441 56.1285 9.64961V4.17475C56.1285 4.03995 56.0192 3.93067 55.8844 3.93067H37.0382C36.9034 3.93067 36.7942 4.03995 36.7942 4.17475V23.2245V29.6542C36.7942 32.9178 39.4399 35.5635 42.7034 35.5635H56.354V29.5731H44.4727Z" fill="#FAFAFA"/>
</svg>
