<svg width="117" height="65" viewBox="0 0 117 65" fill="none" xmlns="http://www.w3.org/2000/svg">
<path d="M80.086 50.9356C79.3678 52.868 78.3417 54.5269 77.0078 55.9121C75.6739 57.2973 74.0835 58.3746 72.2194 59.1271C70.3554 59.8796 68.3032 60.2729 66.063 60.2729C62.5743 60.2729 59.5816 59.4007 57.1019 57.6735C54.6222 55.9463 52.9976 53.5863 52.228 50.5765H57.29C57.7859 51.671 58.4016 52.5602 59.1712 53.2272C59.9236 53.8941 60.7445 54.3901 61.5995 54.7321C62.4546 55.0741 63.2755 55.2964 64.0792 55.4161C64.883 55.5358 65.5328 55.5871 66.0801 55.5871C67.9441 55.5871 69.5174 55.2622 70.8342 54.5953C72.151 53.9283 73.2113 53.0733 74.0151 52.0301C74.8359 50.9869 75.4174 49.8069 75.7765 48.473C76.1356 47.1391 76.3237 45.8223 76.3237 44.4884V41.4102C75.2634 42.8467 73.8611 44.078 72.1339 45.087C70.4067 46.0959 68.4742 46.5919 66.3537 46.5919C64.2331 46.5919 62.2665 46.1985 60.4879 45.3948C58.7094 44.591 57.1532 43.4965 55.8535 42.0942C54.5367 40.6919 53.5106 39.0502 52.7753 37.2033C52.0399 35.3392 51.6637 33.3555 51.6637 31.2178C51.6637 29.0802 52.0399 27.0964 52.7753 25.2153C53.5106 23.3342 54.5367 21.7095 55.8535 20.3243C57.1703 18.9391 58.7094 17.8446 60.4879 17.0238C62.2665 16.2029 64.2331 15.7925 66.3537 15.7925C68.5255 15.7925 70.4922 16.3226 72.2707 17.3829C74.0493 18.4432 75.4516 19.7258 76.4776 21.1965V16.5278H81.1463V44.4884C81.1634 46.8655 80.8043 49.0032 80.086 50.9356ZM75.5371 27.028C75.0069 25.6941 74.2887 24.5312 73.3652 23.5223C72.4588 22.5133 71.3986 21.7266 70.2015 21.1623C69.0044 20.5979 67.7218 20.3072 66.3537 20.3072C64.9856 20.3072 63.703 20.5979 62.4888 21.1623C61.2746 21.7266 60.2314 22.5133 59.3593 23.5223C58.4871 24.5312 57.7859 25.6941 57.2729 27.028C56.7599 28.3619 56.5034 29.7813 56.5034 31.3033C56.5034 32.7912 56.7599 34.1935 57.2729 35.5103C57.7859 36.8442 58.47 37.9899 59.3593 38.9818C60.2314 39.9737 61.2746 40.7432 62.4888 41.3247C63.703 41.889 65.0027 42.1797 66.3537 42.1797C67.7218 42.1797 69.0044 41.889 70.2015 41.3247C71.3986 40.7603 72.4588 39.9737 73.3652 38.9818C74.2716 37.9899 74.9898 36.8442 75.5371 35.5103C76.0672 34.1764 76.3408 32.7741 76.3408 31.3033C76.3237 29.7813 76.0672 28.3448 75.5371 27.028ZM105.174 17.0238C106.969 17.8446 108.525 18.9562 109.842 20.3585C111.159 21.7608 112.185 23.4026 112.938 25.2837C113.69 27.1648 114.083 29.1657 114.083 31.2862C114.083 33.4068 113.707 35.3905 112.938 37.2375C112.185 39.0844 111.142 40.6919 109.842 42.0771C108.525 43.4623 106.969 44.5568 105.174 45.3435C103.378 46.1301 101.428 46.5406 99.342 46.5406C97.2557 46.5406 95.3232 46.1472 93.5276 45.3435C91.732 44.5397 90.1929 43.4623 88.859 42.0771C87.5251 40.6919 86.4819 39.0844 85.7294 37.2375C84.977 35.3905 84.5836 33.4068 84.5836 31.2862C84.5836 29.1657 84.9599 27.1648 85.7294 25.2837C86.4819 23.4026 87.5251 21.7608 88.859 20.3585C90.1929 18.9562 91.7491 17.8446 93.5276 17.0238C95.3061 16.2029 97.2557 15.7925 99.342 15.7925C101.428 15.8096 103.361 16.22 105.174 17.0238ZM103.173 41.2563C104.37 40.6919 105.43 39.9224 106.336 38.9476C107.243 37.9728 107.961 36.8271 108.474 35.5103C108.987 34.1764 109.244 32.7741 109.244 31.3033C109.244 29.7813 108.987 28.3448 108.474 27.0109C107.961 25.6599 107.243 24.497 106.336 23.5052C105.43 22.5133 104.37 21.7266 103.173 21.1452C101.976 20.5637 100.693 20.2559 99.3249 20.2559C97.9568 20.2559 96.6742 20.5466 95.4771 21.1452C94.2801 21.7266 93.2369 22.5133 92.3476 23.5052C91.4583 24.497 90.7572 25.6599 90.2442 27.0109C89.7311 28.3619 89.4746 29.7984 89.4746 31.3033C89.4746 32.7912 89.7311 34.1935 90.2442 35.5103C90.7572 36.8442 91.4583 37.9899 92.3476 38.9476C93.2369 39.9224 94.2801 40.6919 95.4771 41.2563C96.6742 41.8206 97.9568 42.1113 99.3249 42.1113C100.71 42.1113 101.976 41.8206 103.173 41.2563ZM8.10676 53.193C7.3201 53.193 6.53344 53.0049 5.81519 52.6115C4.24187 51.7736 3.25 50.1318 3.25 48.3362V28.9605C3.25 26.2756 5.42186 24.1208 8.08966 24.1208C10.7575 24.1208 12.9293 26.2927 12.9293 28.9605V39.2896L28.4231 28.9605L5.42186 13.6035C3.1987 12.1157 2.60015 9.10589 4.07086 6.88273C5.55867 4.65956 8.5685 4.06102 10.7917 5.53173L39.8809 24.9246C41.2319 25.8309 42.0357 27.3358 42.0357 28.9605C42.0357 30.5851 41.2319 32.09 39.8809 32.9964L10.8088 52.3892C9.9879 52.9193 9.04733 53.193 8.10676 53.193Z" fill="#FAFAFA"/>
</svg>
