<svg width="128" height="64" viewBox="0 0 128 64" fill="none" xmlns="http://www.w3.org/2000/svg">
<path d="M79.1787 25.0608C80.6271 25.0608 81.325 25.7522 81.325 27.1956V51.7673C81.325 58.0912 76.7024 60.6037 71.8875 60.6037C70.1616 60.6037 69.086 59.9058 69.086 58.5116V56.3768C69.086 55.3538 69.5064 54.4653 71.1896 54.2781C72.5428 54.1402 73.9008 53.3947 73.9008 51.2122V27.1956C73.9008 25.7571 74.5987 25.0608 76.0471 25.0608H79.1787ZM39.5008 24.4056C48.1402 24.4056 50.4787 29.4372 50.4787 36.6939C50.4787 43.9506 48.1402 48.9756 39.5008 48.9756C30.8565 48.9756 28.5181 43.9555 28.5181 36.6939C28.5181 29.4322 30.8614 24.4056 39.5008 24.4056ZM95.1323 24.4056C103.543 24.4056 105.13 27.9888 105.13 33.201V46.1971C105.13 47.6339 104.432 48.3319 102.984 48.3319H101.998C100.832 48.3319 100.41 47.9591 99.8043 46.8884L99.6171 46.56C97.9339 48.0445 95.5527 48.9756 92.7528 48.9756C86.8181 48.9756 84.8097 45.0689 84.8097 41.576C84.8097 35.2931 89.434 34.3669 93.6347 33.9465L97.8912 33.5261V32.0351C97.8912 30.9644 97.1407 30.4126 95.1323 30.4126C92.6576 30.4126 89.8561 31.1516 89.1992 31.2944C87.3288 31.7083 86.2597 30.5965 86.2597 29.1958V27.9395C86.2597 26.4616 87.0053 25.7522 87.9364 25.4763C90.2731 24.7842 92.6954 24.4238 95.1323 24.4056ZM60.2233 19.2476C62.184 18.7352 63.0248 19.709 63.0248 21.1525V25.0608H66.672C68.1204 25.0608 68.8249 25.7522 68.8249 27.1956V29.112C68.8249 30.5505 68.1204 31.2468 66.672 31.2468H63.0281V40.1276C63.0281 41.9439 63.7326 42.9719 66.1121 42.9719H66.5817C67.6524 42.9719 68.5901 43.7108 68.5901 44.9244V46.4582C68.6198 47.6034 67.8018 48.5957 66.672 48.7851C65.98 48.914 65.2772 48.9761 64.5734 48.9707C57.9374 48.9707 55.5562 46.2233 55.5562 40.7352V31.2419H53.7351C52.2851 31.2419 51.5822 30.5506 51.5822 29.1071V28.0364C51.5822 26.8343 52.0995 26.2218 53.451 25.849L55.5562 25.2891L55.553 22.2231C55.553 20.8815 56.1113 20.3642 57.7945 19.8962L60.2233 19.2476ZM8.95499 13.4277C10.4034 13.4277 11.1062 14.1207 11.1062 15.5625V25.8967C12.9747 24.8985 15.064 24.3858 17.1822 24.4056C23.5357 24.4056 25.3585 27.7539 25.3585 32.2206V46.1872C25.3585 47.6241 24.6541 48.322 23.2057 48.322H20.0232C18.5748 48.322 17.8719 47.629 17.8719 46.1872V33.3389C17.8719 31.6196 17.2643 30.4537 15.256 30.4537C13.7864 30.4736 12.35 30.8937 11.1013 31.6689V46.1872C11.1013 47.6241 10.3985 48.322 8.95007 48.322H5.77577C4.32738 48.322 3.62289 47.629 3.62289 46.1872V15.5625C3.62289 14.1257 4.32738 13.4277 5.77577 13.4277H8.95499ZM121.111 24.4023C123.213 24.4023 123.87 25.1955 123.87 26.4944V28.419C123.87 29.8083 123.08 30.5538 121.767 30.5538C119.151 30.5538 117.004 31.3404 116.398 31.9004V46.1872C116.398 47.6241 115.694 48.322 114.245 48.322H111.071C109.623 48.322 108.918 47.629 108.918 46.1872V27.1874C108.918 25.7489 109.623 25.0526 111.071 25.0526H112.237C113.543 25.0526 113.685 25.5682 114.342 26.7292C115.508 25.6109 118.405 24.4023 121.111 24.4023ZM97.8928 37.5774L94.7612 37.9928C92.6576 38.2753 91.8152 39.2967 91.8152 41.1129C91.8152 42.8323 92.94 43.8603 94.5264 43.8603C95.8795 43.8603 97.1423 43.4875 97.8928 42.742V37.5774ZM39.5008 30.3633C36.9276 30.3633 35.9965 32.04 35.9965 36.6939C35.9965 41.3478 36.9325 43.0178 39.5008 43.0178C42.0692 43.0178 43.0003 41.3527 43.0003 36.6939C43.0003 32.0351 42.0692 30.3633 39.5008 30.3633Z" fill="#FAFAFA"/>
<path d="M84.4747 8.94971C81.7274 3.97889 73.666 2.89014 73.666 2.89014C73.666 2.89014 77.3871 7.03167 72.6315 10.3094C69.6263 12.3769 68.4357 15.0635 69.7232 17.998C70.7085 20.2461 72.794 21.1592 75.0438 21.5024C74.4657 20.3906 74.3212 18.7846 74.7482 17.1375C74.7909 16.9733 74.8385 16.8009 74.8927 16.6449C75.5233 17.6203 76.5579 18.154 77.5678 17.9077C78.9505 17.5793 79.7617 15.9059 79.384 14.1866C79.2977 13.8136 79.1578 13.4552 78.9685 13.1224C79.0227 13.1356 79.0769 13.1405 79.1328 13.1586C80.8587 13.6512 81.6929 16.2311 80.9966 18.9242C80.7903 19.7399 80.4424 20.5131 79.9686 21.2084C82.9311 20.2544 84.9017 17.865 85.4436 15.7368C86.0151 13.5215 85.5815 10.94 84.4747 8.94971Z" fill="#FAFAFA"/>
</svg>
