<svg width="199" height="35" viewBox="0 0 199 35" fill="none" xmlns="http://www.w3.org/2000/svg">
<path d="M32.8371 17.6555C32.8371 25.6235 26.4217 32.0832 18.5077 32.0832C10.5937 32.0832 4.17886 25.6255 4.17886 17.6555C4.17886 9.6856 10.5942 3.22839 18.5077 3.22839C26.4212 3.22839 32.8371 9.68755 32.8371 17.6555ZM48.5565 17.6555C48.5565 25.1564 45.3486 31.2365 41.3918 31.2365C37.4351 31.2365 34.2272 25.1545 34.2272 17.6555C34.2272 10.1566 37.4351 4.07453 41.3918 4.07453C45.3486 4.07453 48.5565 10.1566 48.5565 17.6555ZM54.986 17.6555C54.986 24.376 53.8577 29.8236 52.4661 29.8236C51.0745 29.8236 49.9462 24.374 49.9462 17.6555C49.9462 10.937 51.0745 5.48751 52.4666 5.48751C53.8586 5.48751 54.986 10.9356 54.986 17.6555ZM94.5326 4.47935L94.5725 4.47059V4.16162H86.4235L78.8569 21.9456L71.2903 4.16162H62.5088V4.47059L62.5482 4.47935C64.0356 4.81508 64.7908 5.31576 64.7908 7.1214V28.2602C64.7908 30.0659 64.0327 30.5665 62.5453 30.9023L62.5059 30.911V31.221H68.4639V30.912L68.4244 30.9033C66.937 30.5675 66.1819 30.0668 66.1819 28.2612V8.34755L75.902 31.221H76.4532L86.4566 7.70966V28.7833C86.3291 30.2094 85.5807 30.6498 84.2339 30.9539L84.194 30.9631V31.2696H94.5725V30.9631L94.5326 30.9539C93.1843 30.6498 92.4179 30.2094 92.2905 28.7833L92.2837 7.1214H92.2905C92.2905 5.31576 93.0456 4.81508 94.5326 4.47935ZM99.2732 18.4827C99.443 14.6846 100.807 11.9433 103.096 11.8961C103.802 11.9077 104.394 12.1393 104.854 12.585C105.832 13.5343 106.292 15.5181 106.221 18.4827H99.2732ZM99.1705 19.5531H111.335V19.5021C111.3 16.5977 110.459 14.3386 108.837 12.7875C107.434 11.447 105.358 10.7093 103.177 10.7093H103.129C101.997 10.7093 100.609 10.9838 99.6211 11.481C98.4966 12.0017 97.505 12.7802 96.6798 13.8019C95.3514 15.448 94.5467 17.6726 94.3511 20.1725C94.3447 20.2475 94.3394 20.3224 94.334 20.3973C94.3287 20.4723 94.3253 20.5394 94.3219 20.6109C94.3046 20.9624 94.2987 21.3144 94.3044 21.6663C94.4362 27.3285 97.4948 31.8535 102.927 31.8535C107.696 31.8535 110.472 28.3678 111.165 23.689L110.815 23.5658C109.599 26.0804 107.414 27.6043 104.928 27.4185C101.533 27.1645 98.9331 23.723 99.169 19.5541L99.1705 19.5531ZM125.088 27.2263C124.689 28.1726 123.856 28.6933 122.741 28.6933C121.625 28.6933 120.605 27.9274 119.881 26.5358C119.102 25.0421 118.692 22.9304 118.692 20.429C118.692 15.2227 120.312 11.8552 122.818 11.8552C123.868 11.8552 124.694 12.3758 125.088 13.2842V27.2263ZM133.157 30.9378C131.67 30.586 130.914 30.062 130.914 28.1644V2.9165L121.878 5.57899V5.90499L121.933 5.90061C123.18 5.79989 124.025 5.97213 124.516 6.42561C124.901 6.78081 125.088 7.32576 125.088 8.09259V11.554C124.197 10.9852 123.137 10.7084 121.851 10.7084C119.243 10.7084 116.86 11.8065 115.141 13.801C113.349 15.8796 112.401 18.7201 112.401 22.0147C112.401 27.8987 115.297 31.8535 119.608 31.8535C122.13 31.8535 124.159 30.4717 125.088 28.141V31.2696H133.196V30.9456L133.157 30.9378ZM140.908 6.3502C140.908 4.51292 139.522 3.12719 137.685 3.12719C135.856 3.12719 134.425 4.54309 134.425 6.3502C134.425 8.1573 135.857 9.5732 137.685 9.5732C139.522 9.5732 140.908 8.18747 140.908 6.3502ZM143.041 30.9378C141.553 30.586 140.798 30.062 140.798 28.1644H140.792V10.7682L132.683 13.0964V13.4127L132.731 13.4171C134.486 13.5733 134.966 14.1776 134.966 16.228V31.2696H143.082V30.9456L143.041 30.9378ZM163.819 30.9378C162.332 30.586 161.577 30.062 161.577 28.1644V10.7682L153.856 13.0195V13.3368L153.902 13.3417C155.336 13.4925 155.751 14.1313 155.751 16.191V27.1874C155.272 28.1337 154.375 28.6957 153.288 28.7337C151.525 28.7337 150.555 27.543 150.555 25.3812V10.7687L142.446 13.0969V13.4127L142.494 13.4171C144.249 13.5728 144.73 14.1771 144.73 16.228V25.5345C144.725 26.1842 144.782 26.8328 144.898 27.472L145.044 28.107C145.731 30.567 147.53 31.8535 150.348 31.8535C152.735 31.8535 154.827 30.3758 155.749 28.0637V31.275H163.858V30.9509L163.819 30.9378ZM195.321 31.2696V30.9451L195.282 30.9359C193.668 30.5636 193.039 29.862 193.039 28.4334V16.6002C193.039 12.9106 190.967 10.7084 187.496 10.7084C184.966 10.7084 182.832 12.1705 182.011 14.4481C181.358 12.0347 179.481 10.7084 176.704 10.7084C174.266 10.7084 172.354 11.9953 171.534 14.1693V10.7697L163.425 13.0025V13.3207L163.474 13.3251C165.208 13.4789 165.709 14.1007 165.709 16.0985V31.2696H173.275V30.9456L173.235 30.9359C171.948 30.6332 171.532 30.0814 171.532 28.6655V15.102C171.873 14.3065 172.559 13.364 173.916 13.364C175.602 13.364 176.456 14.5318 176.456 16.8323V31.2696H184.024V30.9456L183.984 30.9359C182.697 30.6332 182.281 30.0814 182.281 28.6655V16.5987C182.284 16.1475 182.249 15.6969 182.174 15.2519C182.535 14.3873 183.261 13.364 184.674 13.364C186.383 13.364 187.214 14.4982 187.214 16.8323V31.2696H195.321Z" fill="#FAFAFA"/>
</svg>
