<svg width="127" height="45" viewBox="0 0 127 45" fill="none" xmlns="http://www.w3.org/2000/svg">
<path d="M3.20895 12.9052L10.5634 5.47998L10.5634 40.0049L3.20895 32.6654V12.9052Z" fill="#FAFAFA"/>
<path d="M31.6266 12.9757L24.1714 5.48438L24.3225 40.0053L31.6769 32.6658L31.6266 12.9757Z" fill="#FAFAFA"/>
<path d="M10.5581 5.48584L29.6789 34.6635L24.3283 40.014L5.19751 10.9009L10.5581 5.48584Z" fill="#FAFAFA"/>
<path d="M39.9797 30.4046V15.8312H40.7371C40.9894 15.8312 41.1351 15.9534 41.1741 16.1974L41.3052 18.3944C41.9656 17.5548 42.735 16.8784 43.6139 16.3658C44.4925 15.8532 45.471 15.5969 46.5489 15.5969C47.3451 15.5969 48.0469 15.724 48.6537 15.9777C49.2605 16.2317 49.763 16.5978 50.1613 17.0762C50.5595 17.5548 50.8604 18.1307 51.0644 18.8045C51.2683 19.4782 51.3702 20.2398 51.3702 21.0893V30.4046H49.9865V21.0893C49.9865 19.7222 49.6756 18.6507 49.0543 17.8744C48.4326 17.0981 47.4811 16.71 46.1993 16.71C45.2473 16.71 44.364 16.9567 43.5483 17.4497C42.7327 17.943 42.0044 18.619 41.3635 19.4782V30.4046H39.9797Z" fill="#FAFAFA"/>
<path d="M60.096 15.5969C60.9205 15.5969 61.6834 15.7381 62.3853 16.0208C63.087 16.3036 63.6956 16.7153 64.2109 17.2562C64.7262 17.7971 65.1284 18.4623 65.4182 19.2518C65.7076 20.0412 65.8525 20.9476 65.8525 21.971C65.8525 22.1853 65.8207 22.3315 65.7568 22.4096C65.6929 22.4876 65.5925 22.5265 65.4556 22.5265H54.8843V22.8043C54.8843 23.8958 55.0117 24.856 55.267 25.6844C55.522 26.5127 55.8854 27.2071 56.3565 27.7676C56.8276 28.3282 57.3968 28.7495 58.0643 29.0322C58.7315 29.315 59.4777 29.4562 60.3021 29.4562C61.0382 29.4562 61.6763 29.3758 62.216 29.215C62.7558 29.0542 63.2098 28.8738 63.5779 28.674C63.9459 28.4743 64.238 28.2939 64.4538 28.1331C64.6697 27.9723 64.8269 27.8919 64.925 27.8919C65.0525 27.8919 65.1508 27.9407 65.2194 28.0381L65.6022 28.5059C65.3666 28.7983 65.0551 29.0714 64.6673 29.3246C64.2795 29.5781 63.8476 29.7951 63.3717 29.9752C62.8956 30.1556 62.3853 30.2992 61.8406 30.4065C61.2959 30.5135 60.7488 30.5673 60.1991 30.5673C59.1979 30.5673 58.2851 30.3942 57.4607 30.0483C56.6362 29.7024 55.9287 29.198 55.3383 28.5352C54.7476 27.8723 54.2912 27.0609 53.9691 26.101C53.6467 25.1411 53.4856 24.042 53.4856 22.8043C53.4856 21.7616 53.6352 20.7991 53.9347 19.9169C54.2341 19.0348 54.6658 18.2746 55.2302 17.6363C55.7944 16.998 56.4863 16.4986 57.3061 16.1378C58.1253 15.7773 59.0554 15.5969 60.096 15.5969ZM60.1892 16.5732C59.4251 16.5732 58.7404 16.6874 58.1352 16.9158C57.5297 17.1442 57.0065 17.4725 56.565 17.9007C56.1235 18.3289 55.7664 18.8427 55.4933 19.4422C55.2202 20.0417 55.0395 20.7126 54.9501 21.4549H64.7134C64.7134 20.6935 64.604 20.0109 64.3858 19.4066C64.1673 18.8025 63.8599 18.2909 63.4631 17.8721C63.0663 17.4536 62.5899 17.1325 62.0343 16.9086C61.4789 16.6851 60.8638 16.5732 60.1892 16.5732Z" fill="#FAFAFA"/>
<path d="M73.9147 15.5969C74.9767 15.5969 75.9273 15.7746 76.7662 16.1305C77.6049 16.4863 78.3122 16.9907 78.8882 17.6436C79.4638 18.2965 79.9031 19.0836 80.206 20.0047C80.5089 20.9257 80.6602 21.9564 80.6602 23.0967C80.6602 24.237 80.5086 25.2654 80.206 26.1814C79.9031 27.0978 79.4638 27.8823 78.8882 28.5352C78.3122 29.1881 77.6049 29.6901 76.7662 30.041C75.9273 30.3918 74.9767 30.5673 73.9147 30.5673C72.8524 30.5673 71.902 30.3918 71.0631 30.041C70.2241 29.6901 69.5144 29.1881 68.9337 28.5352C68.353 27.8823 67.911 27.0975 67.6084 26.1814C67.3055 25.2654 67.1543 24.237 67.1543 23.0967C67.1543 21.9564 67.3055 20.9257 67.6084 20.0047C67.9113 19.0836 68.353 18.2968 68.9337 17.6436C69.5144 16.9907 70.2241 16.4863 71.0631 16.1305C71.902 15.7749 72.8524 15.5969 73.9147 15.5969ZM73.8332 29.5909C74.7023 29.5909 75.4614 29.4415 76.1108 29.1423C76.76 28.8432 77.3019 28.4143 77.7367 27.8554C78.1711 27.2965 78.4957 26.6225 78.7107 25.833C78.9251 25.0437 79.0329 24.1589 79.0329 23.1781C79.0329 22.2074 78.9254 21.3249 78.7107 20.5307C78.4957 19.7364 78.1711 19.0575 77.7367 18.4936C77.3022 17.9299 76.7603 17.496 76.1108 17.1919C75.4614 16.888 74.702 16.7359 73.8332 16.7359C72.9643 16.7359 72.2047 16.888 71.5555 17.1919C70.9061 17.496 70.3641 17.9299 69.9297 18.4936C69.4949 19.0575 69.168 19.7364 68.9483 20.5307C68.7286 21.3249 68.6187 22.2074 68.6187 23.1781C68.6187 24.1586 68.7286 25.0437 68.9483 25.833C69.168 26.6225 69.4949 27.2965 69.9297 27.8554C70.3641 28.4143 70.9061 28.8432 71.5555 29.1423C72.2047 29.4415 72.964 29.5909 73.8332 29.5909Z" fill="#FAFAFA"/>
<path d="M89.3771 30.0791H86.1146L80.172 15.1087H83.1578C83.42 15.1087 83.6408 15.172 83.8206 15.2984C84 15.425 84.1241 15.5852 84.192 15.7799L87.0759 23.7758C87.2407 24.2427 87.3794 24.7 87.491 25.1473C87.6025 25.595 87.7022 26.0424 87.7895 26.4897C87.8769 26.0424 87.9763 25.595 88.0881 25.1473C88.1997 24.7 88.343 24.2427 88.5178 23.7758L91.4745 15.7799C91.5424 15.5852 91.6639 15.425 91.8386 15.2984C92.0134 15.172 92.222 15.1087 92.4649 15.1087H95.3051L89.3771 30.0791Z" fill="#FAFAFA"/>
<path d="M99.8613 15.2714H96.1187V30.2418H99.8613V15.2714Z" fill="#FAFAFA"/>
<path d="M102.302 30.2418V15.1809H104.519C104.989 15.1809 105.297 15.401 105.444 15.8414L105.678 16.9571C105.943 16.6635 106.219 16.3942 106.508 16.1497C106.796 15.9051 107.105 15.6946 107.433 15.5185C107.76 15.3423 108.113 15.2029 108.49 15.1001C108.866 14.9974 109.28 14.946 109.73 14.946C110.679 14.946 111.46 15.2029 112.072 15.7166C112.683 16.2304 113.141 16.913 113.444 17.7644C113.679 17.2653 113.973 16.8373 114.325 16.48C114.677 16.123 115.064 15.8317 115.485 15.6066C115.905 15.3817 116.353 15.2152 116.828 15.1075C117.302 14.9997 117.779 14.946 118.259 14.946C119.091 14.946 119.83 15.0734 120.476 15.3276C121.122 15.5822 121.665 15.9539 122.105 16.4433C122.546 16.9327 122.881 17.5295 123.111 18.2342C123.341 18.9388 123.456 19.7461 123.456 20.6562V30.2418H119.83V20.6562C119.83 19.6971 119.619 18.9755 119.199 18.491C118.778 18.0066 118.161 17.7644 117.349 17.7644C116.977 17.7644 116.632 17.8281 116.314 17.9552C115.996 18.0827 115.717 18.2662 115.477 18.5057C115.238 18.7456 115.049 19.0465 114.912 19.4085C114.775 19.7705 114.707 20.1865 114.707 20.6562V30.2418H111.066V20.6562C111.066 19.6484 110.863 18.9144 110.457 18.4543C110.051 17.9946 109.452 17.7644 108.659 17.7644C108.14 17.7644 107.653 17.8942 107.198 18.1534C106.743 18.4127 106.32 18.7676 105.929 19.2177V30.2418H102.302Z" fill="#FAFAFA"/>
<path d="M99.8613 10.2271H96.1187V13.3188H99.8613V10.2271Z" fill="#FAFAFA"/>
</svg>
