<svg width="153" height="39" viewBox="0 0 153 39" fill="none" xmlns="http://www.w3.org/2000/svg">
<path d="M32.9428 8.43095C26.8919 2.4216 17.0533 2.42521 11.0059 8.43095L5.9569 13.4453C5.50169 13.8974 5.50169 14.6384 5.9569 15.0908C6.41294 15.5436 7.1594 15.5436 7.61461 15.091L12.6638 10.0769C17.7995 4.97671 26.153 4.98005 31.285 10.0769C36.4207 15.1769 36.4174 23.4724 31.285 28.5696L26.2358 33.5839C25.7803 34.036 25.7803 34.7773 26.2369 35.2305C26.6919 35.6823 27.4383 35.6823 27.8935 35.2305L32.9428 30.2158C38.9902 24.2106 38.9936 14.4403 32.9428 8.43095ZM27.0639 14.3525C23.6646 10.9959 18.138 10.9987 14.7413 14.3539L7.92592 21.0839C7.46806 21.5368 7.46806 22.2759 7.92507 22.7269C8.38265 23.1791 9.13162 23.1791 9.5892 22.7269L16.4046 15.9969C18.8859 13.5463 22.9196 13.5458 25.4003 15.9961C27.8816 18.4461 27.8805 22.4292 25.3995 24.8795L18.5841 31.61C18.1265 32.0619 18.1265 32.8012 18.5841 33.2534C19.0408 33.7044 19.7895 33.7044 20.2474 33.2526L27.0628 26.5223C30.4598 23.1671 30.4632 17.7096 27.0639 14.3525ZM20.2219 21.2764C19.7681 20.82 19.0254 20.82 18.5724 21.2753L12.6429 27.2382C12.1896 27.694 12.1896 28.4405 12.6438 28.8972C13.0976 29.3547 13.84 29.3547 14.2933 28.8988L20.2233 22.9357C20.6797 22.4762 20.6761 21.7331 20.2219 21.2764Z" fill="#FAFAFA"/>
<path d="M85.0513 15.0006C88.9713 15.0006 92.1603 18.2208 92.1603 22.1791C92.1603 26.1524 88.9713 29.385 85.0513 29.385C83.2451 29.385 81.5097 28.6646 80.2234 27.4162V34.0906C80.2234 34.688 79.7181 35.1737 79.0969 35.1737C78.5015 35.1737 77.9984 34.6775 77.9984 34.0906V16.0837C77.9984 15.4965 78.5015 15.0006 79.0969 15.0006C79.7181 15.0006 80.2234 15.4865 80.2234 16.0837V16.9544C81.515 15.7157 83.2513 15.0006 85.0513 15.0006ZM52.3723 9.46289C52.9745 9.46289 53.523 9.97823 53.523 10.5444V15.1881H54.8747C55.4475 15.1881 55.9689 15.7034 55.9689 16.2696C55.9689 16.8358 55.4473 17.3515 54.8745 17.3515H53.5227V26.8585C53.5227 27.2619 53.9775 27.4444 54.1154 27.4444C54.6818 27.4444 55.2378 27.9943 55.2378 28.5544C55.2378 29.1104 54.6924 29.636 54.1154 29.636C52.4979 29.636 51.2779 28.4421 51.2779 26.8588V17.3515H49.9824C48.9366 17.3515 48.8901 16.6338 48.8881 16.3119V16.2274C48.8901 15.9055 48.9366 15.1881 49.9824 15.1881H51.2779V10.5444C51.2779 9.97823 51.7995 9.46289 52.3723 9.46289ZM71.7992 15.0006C72.4077 15.0006 72.8844 15.4817 72.8844 16.0962V28.5404C72.8844 29.1341 72.3874 29.636 71.7992 29.636C71.211 29.636 70.714 29.1341 70.714 28.5404V27.6209C69.4415 28.8983 67.7462 29.636 66.0001 29.636C62.2041 29.636 59.116 26.3534 59.116 22.318C59.116 18.2832 62.2041 15.0006 66.0001 15.0006C67.7542 15.0006 69.449 15.7287 70.714 16.9904V16.0962C70.714 15.4817 71.1904 15.0006 71.7992 15.0006ZM103.225 15.0006C104.819 15.0006 106.383 15.5109 107.66 16.4427L107.883 16.6115C108.089 16.7552 108.241 17.0061 108.279 17.2856C108.32 17.5844 108.23 17.8945 108.032 18.1361C107.634 18.5842 106.992 18.6587 106.529 18.3218C105.575 17.5603 104.437 17.1638 103.225 17.1638C100.286 17.1638 97.8955 19.4633 97.8955 22.2897C97.8955 25.1799 100.237 27.4439 103.225 27.4439C104.41 27.4439 105.579 27.0451 106.52 26.3206C106.993 25.977 107.634 26.0512 108.021 26.487C108.226 26.7359 108.313 27.0264 108.277 27.3182C108.241 27.6195 108.078 27.8929 107.818 28.0872C106.54 29.0845 104.906 29.636 103.225 29.636C99.0059 29.6354 95.7007 26.4085 95.7007 22.2897C95.7007 18.2022 99.0056 15.0006 103.225 15.0006ZM123.726 15.0006C124.335 15.0006 124.811 15.4817 124.811 16.0962V28.5404C124.811 29.1341 124.314 29.636 123.726 29.636C123.138 29.636 122.641 29.1341 122.641 28.5404V27.6206C121.368 28.8983 119.673 29.636 117.927 29.636C114.131 29.636 111.043 26.3534 111.043 22.318C111.043 18.2832 114.131 15.0006 117.927 15.0006C119.681 15.0006 121.376 15.729 122.641 16.9907V16.0962C122.641 15.4817 123.118 15.0006 123.726 15.0006ZM137.475 15.0006C138.094 15.0006 138.58 15.4827 138.58 16.0983C138.58 16.6935 138.074 17.1963 137.475 17.1963C136.064 17.1963 134.889 17.8614 133.779 19.2897C133.144 20.1313 132.689 21.073 132.402 21.7759L132.271 22.1059L132.169 22.3867L132.134 22.4673L132.136 28.5382C132.136 29.1435 131.653 29.636 131.059 29.636C130.423 29.636 129.925 29.1539 129.925 28.5382V16.0986C129.925 15.483 130.423 15.0009 131.059 15.0009C131.653 15.0009 132.136 15.4933 132.136 16.0986V17.7693C133.157 16.4937 134.902 15.0006 137.475 15.0006ZM144.424 9.46289C145.026 9.46289 145.574 9.9785 145.574 10.5444V15.188H146.926C147.499 15.188 148.021 15.7036 148.021 16.2695C148.021 16.8357 147.499 17.3514 146.926 17.3514H145.575V26.8586C145.575 27.2283 145.957 27.4124 146.127 27.4406L146.167 27.4444C146.734 27.4444 147.29 27.994 147.29 28.5541C147.29 29.1101 146.744 29.636 146.167 29.636C144.55 29.636 143.33 28.4419 143.33 26.8588V17.3514H142.034C141.217 17.3514 141.01 16.9129 140.958 16.5676L140.945 16.4567L140.941 16.3571V16.1822L140.945 16.0826L140.958 15.9718C141.01 15.6266 141.217 15.188 142.034 15.188H143.33V10.5444C143.33 9.9785 143.852 9.46289 144.424 9.46289ZM66.1969 16.9783C63.594 16.9783 61.4763 19.2912 61.4763 22.1341C61.4763 24.9619 63.594 27.2626 66.1969 27.2626C68.7998 27.2621 70.9175 24.9616 70.9175 22.1341C70.9175 19.2912 68.7998 16.9783 66.1969 16.9783ZM85.248 17.3739C82.6122 17.3739 80.4645 19.444 80.3587 22.0866L80.359 22.2907C80.359 25.0057 82.5527 27.2357 85.25 27.2626L85.429 27.2579C88.0686 27.1398 90.1933 24.9475 90.1933 22.2907C90.1933 19.5795 87.9751 17.3739 85.248 17.3739ZM118.124 16.9783C115.521 16.9783 113.403 19.2912 113.403 22.1341C113.403 24.9619 115.521 27.2626 118.124 27.2626C120.727 27.2621 122.844 24.9616 122.844 22.1341C122.844 19.2912 120.727 16.9783 118.124 16.9783Z" fill="#FAFAFA"/>
</svg>
