<svg width="117" height="47" viewBox="0 0 117 47" fill="none" xmlns="http://www.w3.org/2000/svg">
<path d="M11.2387 34.9291C10.4101 34.0465 9.76161 32.9838 9.29324 31.7408C8.82487 30.4978 8.59075 29.12 8.59075 27.6068V4.26172H2.91663V27.9309C2.91663 30.1647 3.28587 32.1911 4.02447 34.0104C4.76296 35.8299 5.7718 37.3878 7.05064 38.6848C8.32948 39.9818 9.84268 40.9814 11.5899 41.6839C13.3372 42.3864 15.2195 42.7377 17.2371 42.7377C19.2186 42.7377 21.0648 42.3775 22.7761 41.657C24.4873 40.9364 25.9735 39.9096 27.2344 38.5767V42.0893H32.8545V4.26172H27.1804V27.6068C27.1804 29.12 26.9462 30.4889 26.4779 31.7138C26.0095 32.9387 25.352 33.9924 24.5054 34.8751C23.6588 35.7576 22.6681 36.4421 21.5333 36.9285C20.3984 37.4149 19.1826 37.6581 17.8856 37.6581C16.5526 37.6581 15.3187 37.424 14.1838 36.9556C13.049 36.4873 12.0673 35.8118 11.2387 34.9291Z" fill="#FAFAFA"/>
<path fill-rule="evenodd" clip-rule="evenodd" d="M42.6351 18.0417V4.26172H37.1772V42.0892H42.5811V38.6306C43.842 39.8915 45.3101 40.8913 46.9853 41.6298C48.6606 42.3684 50.4708 42.7376 52.4162 42.7376C54.4337 42.7376 56.325 42.3594 58.0904 41.6029C59.8556 40.8463 61.3866 39.8195 62.6837 38.5225C63.9807 37.2257 65.0075 35.7036 65.764 33.9563C66.5205 32.209 66.8987 30.3447 66.8987 28.3633C66.8987 26.3819 66.5205 24.5085 65.764 22.7431C65.0075 20.9779 63.9807 19.4468 62.6837 18.1498C61.3866 16.8528 59.8556 15.826 58.0904 15.0695C56.325 14.313 54.4338 13.9347 52.4162 13.9347C50.4709 13.9347 48.6695 14.304 47.0123 15.0426C45.3552 15.7812 43.896 16.7808 42.6351 18.0417ZM45.2831 35.1183C44.4184 34.2536 43.7428 33.2449 43.2565 32.092C42.7702 30.9392 42.527 29.6963 42.5271 28.3633C42.5271 27.0303 42.7793 25.7784 43.2837 24.6075C43.788 23.4367 44.4726 22.419 45.3371 21.5543C46.2019 20.6898 47.2106 20.0143 48.3634 19.5279C49.5162 19.0415 50.7411 18.7983 52.038 18.7983C53.3349 18.7983 54.5597 19.0416 55.7126 19.5279C56.8656 20.0142 57.8652 20.6898 58.7119 21.5543C59.5585 22.419 60.234 23.4367 60.7383 24.6075C61.2427 25.7784 61.4949 27.0303 61.4949 28.3633C61.4949 29.6963 61.2427 30.9392 60.7383 32.092C60.234 33.2449 59.5585 34.2537 58.7119 35.1183C57.8651 35.983 56.8654 36.6675 55.7126 37.1718C54.5598 37.6762 53.335 37.9284 52.038 37.9284C50.705 37.9284 49.4622 37.6762 48.3092 37.1718C47.1564 36.6675 46.1477 35.9829 45.2831 35.1183Z" fill="#FAFAFA"/>
<path fill-rule="evenodd" clip-rule="evenodd" d="M69.9785 22.7973C70.6989 21.0681 71.6898 19.546 72.9506 18.2311C74.2114 16.9161 75.7067 15.8804 77.4359 15.1238C79.1652 14.3673 81.0386 13.9891 83.056 13.9891C85.0375 13.9891 86.8748 14.3493 88.5681 15.0698C90.2613 15.7903 91.7203 16.7901 92.9452 18.069C94.1701 19.3479 95.1249 20.8611 95.8092 22.6083C96.4938 24.3556 96.836 26.256 96.836 28.3096V30.0929H74.4098C74.59 31.2097 74.9502 32.2454 75.4906 33.2C76.0311 34.1547 76.7064 34.9833 77.517 35.6858C78.3276 36.3884 79.2463 36.9379 80.273 37.334C81.2998 37.7303 82.3895 37.9285 83.5424 37.9285C86.8209 37.9285 89.4689 36.5775 91.4863 33.8755L95.4311 36.7935C94.0621 38.6309 92.369 40.072 90.3515 41.1167C88.334 42.1614 86.0644 42.6839 83.5425 42.6839C81.489 42.6839 79.5707 42.3235 77.7874 41.603C76.004 40.8826 74.455 39.8738 73.14 38.5767C71.8251 37.2797 70.7893 35.7577 70.0328 34.0105C69.2762 32.2633 68.8979 30.3628 68.8979 28.3093C68.8977 26.364 69.2581 24.5266 69.9785 22.7973ZM77.571 20.6627C76.0399 21.9417 75.0222 23.6439 74.5179 25.7695H91.3242C90.8558 23.6439 89.856 21.9417 88.3249 20.6627C86.7938 19.3839 85.0015 18.7444 82.948 18.7444C80.8945 18.7444 79.1022 19.3839 77.571 20.6627Z" fill="#FAFAFA"/>
<path d="M107.049 21.2842C105.896 22.5451 105.32 24.2563 105.32 26.4179V42.0895H99.8618V14.5293H105.266V17.9338C105.95 16.817 106.842 15.9343 107.941 15.2859C109.039 14.6373 110.345 14.313 111.859 14.313H113.75V19.3927H111.48C109.679 19.3929 108.202 20.0233 107.049 21.2842Z" fill="#FAFAFA"/>
</svg>
