<svg width="117" height="47" viewBox="0 0 117 47" fill="none" xmlns="http://www.w3.org/2000/svg">
<path fill-rule="evenodd" clip-rule="evenodd" d="M113.857 33.3319C113.048 33.6741 111.495 33.9221 110.531 33.9221C107.766 33.9221 106.368 32.6169 106.368 29.914V21.4946H104.1V18.4809H106.368V14.7208L110.158 14.1918V18.4809H114.042L113.794 21.4946H110.158V29.4173C110.158 30.2256 110.531 30.7538 111.526 30.7538C112.085 30.7538 112.768 30.6298 113.421 30.4439L113.857 33.3327V33.3319ZM98.7559 33.6113V12.2965L102.547 11.7675V33.6113H98.7559ZM86.5449 18.4801V29.0436C86.5449 29.852 86.8871 30.2554 87.7567 30.2554C88.6891 30.2554 90.3356 29.6966 91.7028 28.9825V18.4792H95.4934V33.6105H92.6037L92.2309 32.3367C90.3356 33.2691 87.9435 33.9212 86.1722 33.9212C83.6561 33.9212 82.7543 32.1499 82.7543 29.447V18.4784H86.5449V18.4801ZM76.1673 27.8947H73.3719C72.1295 27.8947 71.7873 28.2369 71.7873 29.3867C71.7873 30.443 72.1295 30.9076 73.3091 30.9076C74.4282 30.9076 75.454 30.5356 76.169 30.1314V27.8947H76.1673ZM79.958 33.6113H76.8517L76.5724 32.5863C75.2052 33.4873 73.5893 33.9221 72.0675 33.9221C69.301 33.9221 68.1207 32.0267 68.1207 29.4173C68.1207 26.3416 69.4572 25.1604 72.5329 25.1604H76.1682V23.5742C76.1682 21.8963 75.702 21.3061 73.2785 21.3061C71.9113 21.3061 70.4202 21.4929 69.0844 21.7723L68.6183 18.8826C70.0466 18.4478 72.1287 18.1676 73.8066 18.1676C78.5611 18.1676 79.9588 19.8456 79.9588 23.637V33.6105L79.958 33.6113ZM63.3356 12.9172H67.4057L61.2229 33.6113H55.4427L49.26 12.9172H53.33L58.3324 30.1628L63.3356 12.9172ZM25.3464 20.825H27.6459V18.5247H25.3464V20.825ZM25.3266 17.3749H27.6261V15.0746H25.3266V17.3749ZM21.8963 13.9248H24.1958V11.6245H21.8955V13.9248H21.8963ZM21.8963 17.3749H24.1958V15.0746H21.8955V17.3749H21.8963ZM21.8963 20.825H24.1958V18.5239H21.8955V20.8242L21.8963 20.825ZM21.8963 24.2752H24.1958V21.9748H21.8955V24.2743L21.8963 24.2752ZM18.4462 13.924H20.7465V11.6245H18.4462V13.9248V13.924ZM18.4462 17.3741H20.7465V15.0738H18.4462V17.3741ZM18.4462 20.8242H20.7465V18.5239H18.4462V20.8242ZM25.3266 13.924H27.6261V11.6245H25.3266V13.9248V13.924ZM3.20834 3.66211L22.9741 43.3376L42.8838 3.66211H3.20834Z" fill="#FAFAFA"/>
</svg>
