<svg width="135" height="35" viewBox="0 0 135 35" fill="none" xmlns="http://www.w3.org/2000/svg">
<path d="M66.9792 10.2082C61.9479 10.2082 58.3203 13.4894 58.3203 18.4113C58.3203 23.3332 62.4037 26.6144 67.4349 26.6144C70.4746 26.6144 73.1543 25.4113 74.8132 23.3833L71.3268 21.369C70.4063 22.3761 69.0072 22.964 67.4349 22.964C65.252 22.964 63.3971 21.8247 62.709 20.0018H75.4785C75.5788 19.4914 75.638 18.9627 75.638 18.4067C75.638 13.4894 72.0104 10.2082 66.9792 10.2082ZM62.668 16.8162C63.2376 14.9979 64.7962 13.854 66.9746 13.854C69.1576 13.854 70.7162 14.9979 71.2813 16.8162H62.668ZM116.052 10.2082C111.021 10.2082 107.393 13.4894 107.393 18.4113C107.393 23.3332 111.477 26.6144 116.508 26.6144C119.548 26.6144 122.227 25.4113 123.886 23.3833L120.4 21.369C119.479 22.3761 118.08 22.964 116.508 22.964C114.325 22.964 112.47 21.8247 111.782 20.0018H124.551C124.652 19.4914 124.711 18.9627 124.711 18.4067C124.711 13.4894 121.083 10.2082 116.052 10.2082ZM111.745 16.8162C112.315 14.9979 113.874 13.854 116.052 13.854C118.235 13.854 119.794 14.9979 120.359 16.8162H111.745ZM93.9583 18.4113C93.9583 21.1457 95.7448 22.9686 98.5156 22.9686C100.393 22.9686 101.801 22.1164 102.526 20.7264L106.026 22.7453C104.577 25.1606 101.861 26.6144 98.5156 26.6144C93.4798 26.6144 89.8568 23.3332 89.8568 18.4113C89.8568 13.4894 93.4844 10.2082 98.5156 10.2082C101.861 10.2082 104.572 11.6619 106.026 14.0773L102.526 16.0962C101.801 14.7062 100.393 13.854 98.5156 13.854C95.7494 13.854 93.9583 15.6769 93.9583 18.4113ZM131.547 5.19515V26.1587H127.445V5.19515H131.547ZM19.5423 2.9165L36.3815 32.0832H2.70312L19.5423 2.9165ZM61.6426 5.19515L49.0143 27.0702L36.3861 5.19515H41.1211L49.0143 18.867L56.9076 5.19515H61.6426ZM88.4896 10.6639V15.0799C88.0339 14.9478 87.5508 14.8566 87.0313 14.8566C84.3835 14.8566 82.474 16.6795 82.474 19.4139V26.1587H78.3724V10.6639H82.474V14.8566C82.474 12.5415 85.1673 10.6639 88.4896 10.6639Z" fill="#FAFAFA"/>
</svg>
